<?xml version="1.0" encoding="UTF-8" standalone="no"?><!DOCTYPE svg PUBLIC "-//W3C//DTD SVG 1.1//EN" "http://www.w3.org/Graphics/SVG/1.1/DTD/svg11.dtd"><svg width="100%" height="100%" viewBox="0 0 320 240" version="1.1" xmlns="http://www.w3.org/2000/svg" xmlns:xlink="http://www.w3.org/1999/xlink" xml:space="preserve" style="fill-rule:evenodd;clip-rule:evenodd;stroke-linejoin:round;stroke-miterlimit:1.41421;"><path d="M20.023,210l11.632,0c0,-16.788 -1.622,-12.121 15.96,-17.266c8.878,-2.579 16.718,-6.335 20.265,-14.105c1.866,-4.049 3.115,-10.675 -1.412,-19.227c-8.33,-15.738 -10.663,-29.517 -6.23,-36.878c4.783,-7.957 19.857,-7.945 24.663,0.14c8.179,13.696 -6.941,34.836 -8.925,43.586l12.227,0c3.85,-8.75 10.547,-19.32 10.547,-34.125c0,-17.593 -11.469,-27.125 -26.227,-27.125c-21.817,0 -36.983,20.849 -16.333,59.839c6.778,12.81 -7.234,15.855 -22.272,19.331c-13.055,3.01 -13.918,9.392 -13.918,20.429c0,1.691 0.023,3.488 0.023,5.401Zm266.058,-25.83c-15.038,-3.476 -29.05,-6.521 -22.271,-19.331c20.65,-38.99 5.483,-59.839 -16.334,-59.839c-14.758,0 -26.226,9.532 -26.226,27.125c0,14.805 6.696,25.375 10.546,34.125l12.227,0c-1.983,-8.75 -17.103,-29.89 -8.925,-43.586c4.807,-8.085 19.88,-8.097 24.663,-0.14c4.434,7.361 2.1,21.14 -6.23,36.878c-4.526,8.552 -3.278,15.178 -1.423,19.227c3.558,7.77 11.398,11.526 20.277,14.105c17.581,5.145 15.96,0.478 15.96,17.266l11.631,0c0,-1.913 0.024,-3.71 0.024,-5.401c0,-11.037 -0.864,-17.419 -13.919,-20.429Zm-56.116,25.83l-11.644,0c0,-18.106 0.7,-20.708 -10.266,-23.251c-16.777,-3.862 -32.632,-7.537 -38.419,-20.172c-2.1,-4.608 -3.511,-12.227 1.809,-22.248c11.911,-22.505 14.91,-41.802 8.201,-52.944c-7.84,-13.008 -31.581,-13.066 -39.491,0.199c-6.72,11.293 -3.699,30.485 8.318,52.64c5.425,9.998 4.048,17.628 1.96,22.248c-5.728,12.717 -21.42,16.345 -38.057,20.172c-11.456,2.648 -10.733,5.075 -10.733,23.356l-11.62,0c0,-2.578 -0.023,-4.993 -0.023,-7.268c0,-14.677 1.166,-23.147 18.526,-27.172c19.623,-4.538 39.014,-8.586 29.692,-25.771c-27.603,-50.925 -7.887,-79.789 21.758,-79.789c29.074,0 49.315,27.802 21.782,79.789c-9.042,17.08 9.613,21.14 29.692,25.771c17.383,4.025 18.538,12.507 18.538,27.219c0,2.251 -0.023,4.666 -0.023,7.221Z" style="fill:#58b2dc;"/></svg>