<?xml version="1.0" encoding="UTF-8" standalone="no"?><!DOCTYPE svg PUBLIC "-//W3C//DTD SVG 1.1//EN" "http://www.w3.org/Graphics/SVG/1.1/DTD/svg11.dtd"><svg width="100%" height="100%" viewBox="0 0 320 240" version="1.1" xmlns="http://www.w3.org/2000/svg" xmlns:xlink="http://www.w3.org/1999/xlink" xml:space="preserve" style="fill-rule:evenodd;clip-rule:evenodd;stroke-linejoin:round;stroke-miterlimit:1.41421;"><path d="M224,27.334c-26.409,0 -50,17.608 -50,41.696c0,8.541 3.075,16.925 8.529,23.437c0.229,7.625 -4.263,18.567 -8.304,26.533c10.837,-1.958 26.25,-6.283 33.237,-10.562c5.908,1.437 11.567,2.096 16.913,2.096c29.516,0 49.625,-20.154 49.625,-41.504c0,-24.217 -23.755,-41.696 -50,-41.696Zm0,8.333c22.975,0 41.666,14.967 41.666,33.363c0,20.487 -21.437,33.17 -41.291,33.17c-8.071,0 -14.096,-1.658 -18.309,-2.683c-4.166,2.554 -6.641,4.321 -17.8,7.583c2.229,-5.72 3.009,-11.45 2.504,-17.77c-3.487,-4.167 -8.437,-10.005 -8.437,-20.3c0,-18.396 18.692,-33.363 41.667,-33.363Zm0,11.458c2.875,0 5.208,2.334 5.208,5.209c0,2.875 -2.333,5.208 -5.208,5.208c-2.875,0 -5.209,-2.333 -5.209,-5.208c0,-2.875 2.334,-5.209 5.209,-5.209Zm-4.167,42.709l8.333,0l0,-25l-8.333,0l0,25Z" style="fill:#58b2dc;"/><path d="M154.11,190.485c-17.195,-3.975 -33.2,-7.455 -25.45,-22.095c23.6,-44.56 6.255,-68.39 -18.66,-68.39c-25.41,0 -42.32,24.745 -18.66,68.39c7.985,14.725 -8.625,18.2 -25.45,22.095c-15.365,3.545 -15.94,11.17 -15.89,24.515c0.01,1.585 0.025,3.245 0.025,5l119.95,0c0,-1.695 0.015,-3.305 0.02,-4.845c0.06,-13.435 -0.465,-21.11 -15.885,-24.67Z" style="fill:#58b2dc;"/></svg>