<?xml version="1.0" encoding="UTF-8" standalone="no"?><!DOCTYPE svg PUBLIC "-//W3C//DTD SVG 1.1//EN" "http://www.w3.org/Graphics/SVG/1.1/DTD/svg11.dtd"><svg width="100%" height="100%" viewBox="0 0 320 240" version="1.1" xmlns="http://www.w3.org/2000/svg" xmlns:xlink="http://www.w3.org/1999/xlink" xml:space="preserve" style="fill-rule:evenodd;clip-rule:evenodd;stroke-linejoin:round;stroke-miterlimit:1.41421;"><path d="M147.916,120.834l0,9.069l28.334,0l0,-9.069l-28.334,0Zm0,-21.25l0,9.069l63.75,0l0,-9.069l-63.75,0Zm0,-21.25l0,9.069l42.5,0l0,-9.069l-42.5,0Zm-28.333,42.5l0,-70.834l120.417,0l0,155.834l-85.78,0c4.151,-4.066 7.565,-8.861 10.094,-14.167l61.519,0l0,-127.5l-92.083,0l0,58.756c-4.498,-1.345 -9.244,-2.089 -14.167,-2.089Zm-21.25,49.583c0,-11.716 9.534,-21.25 21.25,-21.25c11.716,0 21.25,9.534 21.25,21.25c0,11.716 -9.534,21.25 -21.25,21.25c-11.716,0 -21.25,-9.534 -21.25,-21.25Zm1.742,29.531c5.596,3.697 12.29,5.886 19.508,5.886c19.557,0 35.417,-15.853 35.417,-35.417c0,-19.564 -15.86,-35.417 -35.417,-35.417c-19.557,0 -35.417,15.853 -35.417,35.417c0,7.218 2.189,13.912 5.886,19.515l-20.052,20.053l10.015,10.015l20.06,-20.052Z" style="fill:#58b2dc;"/></svg>