<?xml version="1.0" encoding="UTF-8" standalone="no"?><!DOCTYPE svg PUBLIC "-//W3C//DTD SVG 1.1//EN" "http://www.w3.org/Graphics/SVG/1.1/DTD/svg11.dtd"><svg width="100%" height="100%" viewBox="0 0 320 240" version="1.1" xmlns="http://www.w3.org/2000/svg" xmlns:xlink="http://www.w3.org/1999/xlink" xml:space="preserve" style="fill-rule:evenodd;clip-rule:evenodd;stroke-linejoin:round;stroke-miterlimit:1.41421;"><path d="M197.916,146.875c4.485,0 8.125,3.635 8.125,8.125c0,4.491 -3.64,8.125 -8.125,8.125c-4.49,0 -8.125,-3.634 -8.125,-8.125c0,-4.49 3.635,-8.125 8.125,-8.125Zm27.084,0c4.485,0 8.125,3.635 8.125,8.125c0,4.491 -3.64,8.125 -8.125,8.125c-4.491,0 -8.125,-3.634 -8.125,-8.125c0,-4.49 3.634,-8.125 8.125,-8.125Zm18.958,8.125c0,4.491 3.634,8.125 8.125,8.125c4.485,0 8.125,-3.634 8.125,-8.125c0,-4.49 -3.64,-8.125 -8.125,-8.125c-4.491,0 -8.125,3.635 -8.125,8.125Zm-18.958,-54.166c34.33,0 65,22.891 65,54.204c0,11.105 -3.998,22.003 -11.088,30.469c-0.298,9.913 5.541,24.137 10.795,34.493c-14.089,-2.545 -34.125,-8.168 -43.209,-13.731c-7.681,1.869 -15.036,2.725 -21.986,2.725c-38.372,0 -64.512,-26.201 -64.512,-53.956c0,-31.481 30.88,-54.204 65,-54.204Zm0,10.833c-29.868,0 -54.167,19.457 -54.167,43.371c0,26.634 27.869,43.122 53.679,43.122c10.492,0 18.325,-2.155 23.801,-3.488c5.417,3.321 8.634,5.617 23.14,9.858c-2.898,-7.437 -3.911,-14.885 -3.256,-23.102c4.534,-5.416 10.969,-13.005 10.969,-26.39c0,-23.914 -24.299,-43.371 -54.166,-43.371Z" style="fill:#58b2dc;"/><path d="M106.727,62.158c-2.698,-2.735 -6.722,-4.241 -11.321,-4.241c-9.674,0 -15.931,6.885 -15.931,17.534l8.922,0c0,-6.592 3.683,-8.932 6.83,-8.932c2.811,0 5.796,1.869 6.05,5.438c0.282,3.759 -1.727,5.671 -4.268,8.087c-6.267,5.959 -6.386,8.846 -6.354,15.394l8.9,0c-0.054,-2.946 0.135,-5.34 4.144,-9.668c3.006,-3.24 6.749,-7.27 6.819,-13.412c0.049,-4.111 -1.256,-7.638 -3.791,-10.2Zm-6.181,44.374c0,3.066 -2.481,5.552 -5.546,5.552c-3.061,0 -5.547,-2.486 -5.547,-5.552c0,-3.061 2.486,-5.547 5.547,-5.547c3.065,0 5.546,2.486 5.546,5.547Zm-5.546,-75.698c-34.331,0 -65,22.891 -65,54.204c0,11.105 3.997,22.003 11.087,30.469c0.298,9.913 -5.541,24.137 -10.795,34.493c14.089,-2.545 34.125,-8.168 43.209,-13.731c7.681,1.869 15.036,2.725 21.986,2.725c38.372,0 64.513,-26.201 64.513,-53.956c0,-31.481 -30.881,-54.204 -65,-54.204Zm0,10.833c29.867,0 54.166,19.457 54.166,43.371c0,26.634 -27.869,43.122 -53.679,43.122c-10.492,0 -18.325,-2.155 -23.801,-3.488c-5.416,3.321 -8.634,5.617 -23.14,9.858c2.898,-7.437 3.911,-14.885 3.256,-23.102c-4.534,-5.416 -10.969,-13.005 -10.969,-26.39c0,-23.914 24.299,-43.371 54.167,-43.371Z" style="fill:#58b2dc;"/></svg>