<?xml version="1.0" encoding="UTF-8" standalone="no"?><!DOCTYPE svg PUBLIC "-//W3C//DTD SVG 1.1//EN" "http://www.w3.org/Graphics/SVG/1.1/DTD/svg11.dtd"><svg width="100%" height="100%" viewBox="0 0 320 240" version="1.1" xmlns="http://www.w3.org/2000/svg" xmlns:xlink="http://www.w3.org/1999/xlink" xml:space="preserve" style="fill-rule:evenodd;clip-rule:evenodd;stroke-linejoin:round;stroke-miterlimit:1.41421;"><path d="M238.333,195.562c-6.747,0 -12.219,-5.482 -12.219,-12.228c0,-6.747 5.472,-12.229 12.219,-12.229c6.747,0 12.219,5.482 12.219,12.229c0,6.746 -5.472,12.228 -12.219,12.228Zm36.667,-7.287l0,-9.882c-5.042,-1.797 -8.223,-2.301 -9.836,-6.169c-1.614,-3.887 0.302,-6.518 2.585,-11.33l-6.985,-6.985c-4.758,2.273 -7.425,4.207 -11.321,2.594c-3.887,-1.613 -4.391,-4.813 -6.178,-9.836l-9.864,0c-1.778,4.996 -2.291,8.223 -6.178,9.836c-3.887,1.613 -6.518,-0.303 -11.321,-2.594l-6.985,6.985c2.273,4.794 4.198,7.443 2.585,11.33c-1.613,3.886 -4.84,4.4 -9.836,6.169l0,9.882c4.987,1.76 8.223,2.291 9.836,6.169c1.623,3.923 -0.348,6.627 -2.585,11.33l6.985,6.985c4.767,-2.274 7.434,-4.208 11.321,-2.594c3.887,1.613 4.391,4.821 6.178,9.835l9.864,0c1.778,-4.995 2.291,-8.222 6.196,-9.835c0.009,0 0.009,-0.01 0.009,-0.01c3.86,-1.604 6.472,0.312 11.294,2.604l6.985,-6.985c-2.264,-4.776 -4.199,-7.444 -2.585,-11.33c1.613,-3.878 4.849,-4.409 9.836,-6.169Zm-142.084,-38.546c-14.336,0 -25.969,-11.642 -25.969,-25.979c0,-14.345 11.633,-25.978 25.969,-25.978c14.337,0 25.969,11.633 25.969,25.978c0,14.337 -11.632,25.979 -25.969,25.979Zm77.917,-15.492l0,-20.982c-10.725,-3.814 -17.481,-4.886 -20.9,-13.109l0,-0.009c-3.419,-8.25 0.642,-13.86 5.491,-24.062l-14.832,-14.832c-10.129,4.812 -15.794,8.919 -24.072,5.491c-8.24,-3.419 -9.313,-10.23 -13.108,-20.9l-20.992,0c-3.776,10.615 -4.858,17.481 -13.108,20.9l-0.009,0c-8.259,3.428 -13.842,-0.642 -24.063,-5.491l-14.831,14.832c4.831,10.184 8.91,15.803 5.491,24.071c-3.429,8.25 -10.285,9.332 -20.9,13.109l0,20.982c10.587,3.786 17.48,4.877 20.9,13.118c3.446,8.314 -0.743,14.061 -5.491,24.071l14.831,14.832c10.148,-4.813 15.795,-8.919 24.063,-5.491l0.009,0c8.25,3.419 9.323,10.258 13.108,20.9l20.992,0c3.777,-10.615 4.858,-17.462 13.163,-20.918l0.01,0c8.195,-3.41 13.759,0.641 24.007,5.509l14.832,-14.832c-4.813,-10.147 -8.919,-15.803 -5.5,-24.062c3.419,-8.25 10.312,-9.341 20.909,-13.127Z" style="fill:#58b2dc;"/></svg>