<?xml version="1.0" encoding="UTF-8" standalone="no"?><!DOCTYPE svg PUBLIC "-//W3C//DTD SVG 1.1//EN" "http://www.w3.org/Graphics/SVG/1.1/DTD/svg11.dtd"><svg width="100%" height="100%" viewBox="0 0 1140 688" version="1.1" xmlns="http://www.w3.org/2000/svg" xmlns:xlink="http://www.w3.org/1999/xlink" xml:space="preserve" style="fill-rule:evenodd;clip-rule:evenodd;stroke-linejoin:round;stroke-miterlimit:1.41421;"><rect id="hero" x="0" y="0" width="1140" height="760" style="fill:#0c4159;"/><clipPath id="_clip1"><rect x="0" y="0" width="1140" height="760"/></clipPath><g clip-path="url(#_clip1)"><path id="Cloud-Icon" d="M704.486,633.742c0,26.698 21.641,48.34 48.336,48.34c0.01,0 0.018,-0.003 0.027,-0.003l0,0.003l105.462,0l0,-0.003c31.537,-0.012 57.099,-25.581 57.099,-57.12c0,-28.7 -21.227,-52.226 -48.794,-56.287c-10.224,-26.196 -35.642,-44.783 -65.457,-44.783c-37.693,0 -68.367,29.682 -70.138,66.939c-15.683,7.989 -26.535,24.11 -26.535,42.914Z" style="fill:#8393a7;"/><path id="Search-Icon" d="M861.861,541.658c-2.215,2.217 -5.807,2.217 -8.022,0l-17.395,-17.394c-6.57,4.909 -14.694,7.847 -23.526,7.847c-21.757,0 -39.396,-17.636 -39.396,-39.393c0,-21.759 17.639,-39.397 39.396,-39.397c21.759,0 39.397,17.638 39.397,39.397c0,8.829 -2.941,16.955 -7.849,23.525l17.395,17.396c2.215,2.214 2.215,5.805 0,8.019Zm-48.943,-77.081c-15.54,0 -28.139,12.6 -28.139,28.141c0,15.539 12.599,28.14 28.139,28.14c15.542,0 28.141,-12.601 28.141,-28.14c0,-15.541 -12.599,-28.141 -28.141,-28.141Z" style="fill:#58b2dc;"/><path id="Heart-Icon" d="M916.195,272.353c0,28.285 -45,58.128 -45,58.128c0,0 -45,-29.843 -45,-58.128c0,-13.459 10.913,-24.375 24.375,-24.375c8.685,0 16.308,4.543 20.625,11.379c4.318,-6.836 11.941,-11.379 20.625,-11.379c13.462,0 24.375,10.916 24.375,24.375l0,0Z" style="fill:#58b2dc;fill-rule:nonzero;"/><path id="Bubble-Icon" d="M1099.41,432.912c6.719,0 13.273,-0.571 19.62,-1.624c15.633,14.491 35.873,24.065 58.291,26.206c-10.911,-10.359 -18.068,-24.603 -19.319,-40.529c25.051,-15.188 41.409,-39.773 41.409,-67.617c0,-46.144 -44.772,-83.552 -100.001,-83.552c-55.229,0 -99.999,37.408 -99.999,83.552c0,46.153 44.77,83.564 99.999,83.564Z" style="fill:#58b2dc;"/><path id="Cloud-Icon1" d="M1066.2,550.362c0,15.189 -12.312,27.502 -27.5,27.502c-0.005,0 -0.01,-0.001 -0.015,-0.001l0,0.001l-60,0l0,-0.001c-17.943,-0.007 -32.485,-14.555 -32.485,-32.498c0,-16.328 12.076,-29.712 27.759,-32.023c5.817,-14.903 20.278,-25.478 37.241,-25.478c21.444,0 38.896,16.887 39.903,38.083c8.922,4.545 15.097,13.717 15.097,24.415Z" style="fill:#58b2dc;"/><path id="Bubble-Icon1" d="M624.932,143.014c4.031,0 7.963,-0.343 11.772,-0.975c9.379,8.695 21.523,14.439 34.974,15.724c-6.547,-6.215 -10.841,-14.762 -11.591,-24.318c15.03,-9.112 24.845,-23.863 24.845,-40.57c0,-27.686 -26.863,-50.131 -60,-50.131c-33.138,0 -60,22.445 -60,50.131c0,27.692 26.862,50.139 60,50.139Z" style="fill:#58b2dc;"/><path id="Upload-Icon" d="M906.414,231.701c-0.011,0 -0.022,-0.003 -0.034,-0.003l0,0.003l-62.062,0c0,0 0.001,0 0.001,-0.003l0,-62.493l13.818,13.872c4.578,4.588 11.986,4.588 16.557,0c4.578,-4.594 4.578,-12.035 0,-16.623l-32.615,-32.75c-2.444,-2.451 -5.688,-3.49 -8.887,-3.327c-3.238,-0.225 -6.554,0.832 -9.036,3.327l-32.623,32.75c-4.57,4.588 -4.57,12.029 0,16.623c4.571,4.588 11.987,4.588 16.557,0l13.82,-13.872l0,62.496l-50.529,0l0,-0.003c-40.37,-0.015 -73.093,-32.747 -73.093,-73.119c0,-36.738 27.173,-66.853 62.46,-72.052c13.089,-33.533 45.625,-57.326 83.791,-57.326c48.25,0 87.517,37.996 89.782,85.688c20.076,10.226 33.967,30.863 33.967,54.933c0,34.176 -27.702,61.879 -61.874,61.879Z" style="fill:#58b2dc;"/><path id="Cloud-Icon2" d="M820.069,645.005c0,20.252 16.416,36.669 36.666,36.669c0.007,0 0.014,-0.002 0.02,-0.002l0,0.002l80.001,0l0,-0.002c23.923,-0.009 43.313,-19.406 43.313,-43.33c0,-21.771 -16.102,-39.617 -37.013,-42.698c-7.756,-19.871 -27.037,-33.97 -49.654,-33.97c-28.592,0 -51.861,22.516 -53.204,50.778c-11.897,6.06 -20.129,18.289 -20.129,32.553Z" style="fill:#8393a7;"/><path id="Bubble-Icon2" d="M565.561,542.035c2.89,0 5.71,-0.245 8.441,-0.699c6.725,6.235 15.432,10.353 25.076,11.275c-4.694,-4.457 -7.772,-10.585 -8.311,-17.436c10.777,-6.534 17.814,-17.11 17.814,-29.089c0,-19.851 -19.261,-35.945 -43.02,-35.945c-23.76,0 -43.02,16.094 -43.02,35.945c0,19.855 19.26,35.949 43.02,35.949Z" style="fill:#58b2dc;"/><path id="Bubble-Icon3" d="M116.737,542.822c-2.89,0 -5.71,-0.246 -8.44,-0.699c-6.726,6.234 -15.433,10.353 -25.077,11.274c4.694,-4.456 7.773,-10.584 8.311,-17.436c-10.777,-6.533 -17.814,-17.11 -17.814,-29.089c0,-19.851 19.261,-35.944 43.02,-35.944c23.76,0 43.02,16.093 43.02,35.944c0,19.855 -19.26,35.95 -43.02,35.95Z" style="fill:#58b2dc;"/><path id="Bubble-Icon4" d="M1044.09,464.216c-2.89,0 -5.71,-0.245 -8.441,-0.699c-6.725,6.235 -15.432,10.353 -25.076,11.274c4.694,-4.456 7.772,-10.584 8.311,-17.435c-10.777,-6.534 -17.814,-17.11 -17.814,-29.089c0,-19.851 19.261,-35.945 43.02,-35.945c23.759,0 43.02,16.094 43.02,35.945c0,19.855 -19.261,35.949 -43.02,35.949Z" style="fill:#8393a7;"/><path id="Bubble-Icon5" d="M1009.41,237.732c4.031,0 7.963,-0.342 11.772,-0.975c9.379,8.696 21.523,14.44 34.974,15.724c-6.547,-6.215 -10.841,-14.762 -11.591,-24.317c15.03,-9.113 24.845,-23.864 24.845,-40.57c0,-27.686 -26.863,-50.132 -60,-50.132c-33.138,0 -60,22.446 -60,50.132c0,27.691 26.862,50.138 60,50.138Z" style="fill:#58b2dc;"/><path id="Cloud-Icon3" d="M344.486,633.742c0,26.698 21.641,48.34 48.336,48.34c0.01,0 0.018,-0.003 0.027,-0.003l0,0.003l105.462,0l0,-0.003c31.537,-0.012 57.099,-25.581 57.099,-57.12c0,-28.7 -21.227,-52.226 -48.794,-56.287c-10.224,-26.196 -35.642,-44.783 -65.457,-44.783c-37.693,0 -68.367,29.682 -70.138,66.939c-15.683,7.989 -26.535,24.11 -26.535,42.914Z" style="fill:#58b2dc;"/><path id="Bubble-Icon6" d="M558.188,622.737c2.89,0 5.71,0.246 8.44,0.699c6.726,-6.235 15.433,-10.353 25.077,-11.274c-4.694,4.456 -7.773,10.584 -8.311,17.436c10.777,6.533 17.814,17.11 17.814,29.088c0,19.851 -19.261,35.945 -43.02,35.945c-23.76,0 -43.02,-16.094 -43.02,-35.945c0,-19.855 19.26,-35.949 43.02,-35.949Z" style="fill:#58b2dc;"/><path id="Cloud-Icon4" d="M338.356,662.064c0,26.697 -21.641,48.339 -48.337,48.339c-0.009,0 -0.018,-0.002 -0.026,-0.002l0,0.002l-105.462,0l0,-0.002c-31.538,-0.012 -57.099,-25.582 -57.099,-57.12c0,-28.701 21.227,-52.226 48.793,-56.288c10.225,-26.195 35.643,-44.782 65.457,-44.782c37.693,0 68.368,29.682 70.138,66.939c15.683,7.988 26.536,24.11 26.536,42.914Z" style="fill:#8393a7;"/><path id="Cloud-Icon5" d="M477.61,212.781c0,72.895 -59.088,131.987 -131.977,131.987c-0.025,0 -0.049,-0.007 -0.072,-0.007l0,0.007l-287.953,0l0,-0.007c-86.109,-0.033 -155.902,-69.848 -155.902,-155.961c0,-78.363 57.958,-142.597 133.225,-153.686c27.917,-71.524 97.317,-122.274 178.724,-122.274c102.915,0 186.669,81.044 191.503,182.769c42.821,21.813 72.452,65.831 72.452,117.172Z" style="fill:#58b2dc;"/><path id="Reload-Icon" d="M519.186,154.561l-3.15,0l-5.51,0l3.379,-3.364c-1.636,-1.628 -3.896,-2.636 -6.392,-2.636c-4.602,0 -8.397,3.424 -8.964,7.852c0,0 -0.173,1.148 -1.477,1.148c-0.832,0 -1.506,-0.672 -1.506,-1.5c0,-0.113 0.014,-0.223 0.038,-0.33c0.885,-5.758 5.878,-10.17 11.909,-10.17c3.328,0 6.341,1.343 8.522,3.515l3.531,-3.515l0,9l-0.38,0Zm-20.091,6l5.51,0l-3.379,3.364c1.636,1.629 3.896,2.636 6.392,2.636c4.602,0 8.397,-3.424 8.964,-7.852c0,0 0.173,-1.148 1.477,-1.148c0.832,0 1.506,0.672 1.506,1.5c0,0.114 -0.014,0.224 -0.038,0.33c-0.885,5.758 -5.878,10.17 -11.909,10.17c-3.328,0 -6.341,-1.343 -8.522,-3.514l-3.53,3.514l0,-9l3.529,0Z" style="fill:#58b2dc;"/><path id="Cloud-Icon6" d="M703.207,350.257c0,41.806 -33.887,75.695 -75.689,75.695c-0.015,0 -0.029,-0.004 -0.042,-0.004l0,0.004l-165.144,0l0,-0.004c-49.384,-0.019 -89.411,-40.058 -89.411,-89.445c0,-44.941 33.239,-81.78 76.406,-88.14c16.01,-41.02 55.812,-70.125 102.5,-70.125c59.023,0 107.056,46.479 109.829,104.82c24.558,12.509 41.551,37.754 41.551,67.199Z" style="fill:#8393a7;"/><path id="Cloud-Icon7" d="M189.525,452.249c0,36.255 29.389,65.646 65.641,65.646c0.013,0 0.025,-0.004 0.036,-0.004l0,0.004l143.219,0l0,-0.004c42.828,-0.016 77.541,-34.74 77.541,-77.57c0,-38.975 -28.826,-70.923 -66.262,-76.438c-13.885,-35.574 -48.403,-60.816 -88.892,-60.816c-51.187,0 -92.843,40.309 -95.247,90.904c-21.298,10.849 -36.036,32.742 -36.036,58.278Z" style="fill:#58b2dc;"/><path id="Volume-Max-Icon" d="M197.355,680.638l-2.08,-2.079c4.161,-3.767 6.791,-9.195 6.791,-15.25c0,-6.056 -2.63,-11.482 -6.791,-15.249l2.08,-2.08c4.692,4.301 7.652,10.461 7.652,17.329c0,6.868 -2.96,13.028 -7.652,17.329Zm-4.16,-4.159l-2.08,-2.08c3.1,-2.696 5.068,-6.659 5.068,-11.09c0,-4.431 -1.968,-8.394 -5.068,-11.09l2.08,-2.08c3.63,3.233 5.93,7.927 5.93,13.17c0,5.243 -2.3,9.937 -5.93,13.17Zm-4.159,-4.16l-2.092,-2.092c2.042,-1.616 3.357,-4.111 3.357,-6.918c0,-2.806 -1.315,-5.302 -3.357,-6.918l2.092,-2.092c2.57,2.158 4.206,5.392 4.206,9.01c0,3.619 -1.636,6.853 -4.206,9.01Zm-7.558,8.563c-1.104,-0.159 -2.099,-0.653 -2.86,-1.397l-0.082,0l-8.823,-8.823l-10.294,0c-2.437,0 -4.412,-1.975 -4.412,-4.412l0,-5.882c0,-2.437 1.975,-4.412 4.412,-4.412l10.294,0l8.823,-8.824l0.082,0c0.761,-0.744 1.756,-1.236 2.86,-1.397l0,-0.073l1.47,0l0,35.294l-1.47,0l0,-0.074Z" style="fill:#0c4159;"/><path id="Volume-Min-Icon" d="M761.457,162.865l-2.189,-2.189c2.137,-1.691 3.512,-4.3 3.512,-7.238c0,-2.935 -1.375,-5.546 -3.512,-7.237l2.189,-2.188c2.689,2.258 4.401,5.641 4.401,9.425c0,3.786 -1.712,7.17 -4.401,9.427Zm-7.907,8.958c-1.155,-0.167 -2.195,-0.683 -2.992,-1.461l-0.085,0l-9.231,-9.231l-10.769,0c-2.549,0 -4.615,-2.066 -4.615,-4.616l0,-6.153c0,-2.55 2.066,-4.616 4.615,-4.616l10.769,0l9.231,-9.231l0.085,0c0.797,-0.778 1.837,-1.294 2.992,-1.462l0,-0.076l1.538,0l0,36.923l-1.538,0l0,-0.077Z" style="fill:#0c4159;"/><path id="Next-Icon" d="M827.741,94.759c0.713,0.416 1.522,0.41 2.231,-0.01l28.064,-16.663l0,-5.991l-28.064,-16.662c-0.709,-0.422 -1.518,-0.427 -2.231,-0.011c-0.713,0.413 -1.119,1.123 -1.119,1.956l0,35.426c0,0.832 0.406,1.542 1.119,1.955Zm34.598,0.342c2.366,0 4.283,-1.917 4.283,-4.283l0,-31.414c0,-2.366 -1.917,-4.283 -4.283,-4.283c-2.366,0 -4.284,1.917 -4.284,4.283l0,31.414c0,2.366 1.918,4.283 4.284,4.283Z" style="fill:#0c4159;"/><path id="Checked-Icon" d="M255.589,581.715l-16.241,16.263l-6.691,-6.714c-0.808,-0.81 -2.119,-0.81 -2.928,0c-0.808,0.811 -0.808,2.124 0,2.935l8.112,8.137c0.416,0.415 0.963,0.614 1.507,0.602c0.544,0.012 1.092,-0.187 1.507,-0.602l17.662,-17.688c0.808,-0.81 0.808,-2.123 0,-2.933c-0.809,-0.811 -2.119,-0.811 -2.928,0Z" style="fill:#0c4159;"/><path id="Cloud-Icon8" d="M939.983,643.305c0,5.063 -4.104,9.167 -9.167,9.167c-0.002,0 -0.003,0 -0.005,0l0,0l-20,0l0,0c-5.981,-0.003 -10.828,-4.852 -10.828,-10.833c0,-5.443 4.025,-9.904 9.253,-10.674c1.939,-4.968 6.759,-8.493 12.413,-8.493c7.148,0 12.966,5.629 13.301,12.694c2.974,1.515 5.033,4.573 5.033,8.139Z" style="fill:#0c4159;"/><path id="Arrow-Right-Icon" d="M116.445,407.59l7.921,7.904l-7.921,7.905c-0.593,0.593 -0.593,1.554 0,2.146c0.594,0.593 1.557,0.593 2.151,0l8.964,-8.946c0.305,-0.304 0.451,-0.705 0.442,-1.105c0.009,-0.398 -0.137,-0.799 -0.442,-1.104l-8.964,-8.946c-0.594,-0.592 -1.557,-0.592 -2.151,0c-0.593,0.593 -0.593,1.554 0,2.146Z" style="fill:#8393a7;"/><path id="Arrow-Right-Icon1" d="M136.445,407.59l7.921,7.904l-7.921,7.905c-0.593,0.593 -0.593,1.554 0,2.146c0.594,0.593 1.557,0.593 2.151,0l8.964,-8.946c0.305,-0.304 0.451,-0.705 0.442,-1.105c0.009,-0.398 -0.137,-0.799 -0.442,-1.104l-8.964,-8.946c-0.594,-0.592 -1.557,-0.592 -2.151,0c-0.593,0.593 -0.593,1.554 0,2.146Z" style="fill:#58b2dc;"/><path id="Arrow-Right-Icon2" d="M156.445,407.59l7.921,7.904l-7.921,7.905c-0.593,0.593 -0.593,1.554 0,2.146c0.594,0.593 1.557,0.593 2.151,0l8.964,-8.946c0.305,-0.304 0.451,-0.705 0.442,-1.105c0.009,-0.398 -0.137,-0.799 -0.442,-1.104l-8.964,-8.946c-0.594,-0.592 -1.557,-0.592 -2.151,0c-0.593,0.593 -0.593,1.554 0,2.146Z" style="fill:#8393a7;"/><path id="User-Icon" d="M820.758,503.647c-1.817,0.303 -3.954,0.384 -8.004,0.384c-4.049,0 -6.186,-0.081 -8.003,-0.384c-2.546,-0.423 -3.997,-1.331 -3.997,-2.856c0,-2.014 2.592,-4.823 6.196,-6.449c1.456,2.209 3.513,3.69 5.804,3.69c2.292,0 4.348,-1.481 5.805,-3.69c3.603,1.626 6.195,4.435 6.195,6.449c0,1.525 -1.451,2.433 -3.996,2.856Zm-8.004,-7.616c-3.321,0 -6,-4.409 -6,-8.94c0,-4.219 2.505,-7.059 6,-7.059c3.496,0 6.001,2.84 6.001,7.059c0,4.531 -2.679,8.94 -6.001,8.94Z" style="fill:#58b2dc;"/><path id="Lock-Icon" d="M832.236,574.006l-17,0c-0.828,0 -1.5,-0.671 -1.5,-1.5l0,-12c0,-0.828 0.672,-1.5 1.5,-1.5l2.5,0l0,-3c0,-3.313 2.686,-6 6,-6c3.314,0 6,2.687 6,6l0,3l2.5,0c0.829,0 1.5,0.672 1.5,1.5l0,12c0,0.829 -0.671,1.5 -1.5,1.5Zm-10,-4l3,0l-0.784,-3.137c0.75,-0.289 1.284,-1.011 1.284,-1.862c0,-1.105 -0.895,-2 -2,-2c-1.105,0 -2,0.895 -2,2c0,0.851 0.535,1.573 1.284,1.862l-0.784,3.137Zm5.5,-14c0,-2.209 -1.791,-4 -4,-4c-2.209,0 -4,1.791 -4,4l0,3l8,0l0,-3Z" style="fill:#0c4159;"/><path id="Lock-Icon1" d="M884.348,303.656l-25.5,0c-1.243,0 -2.25,-1.007 -2.25,-2.25l0,-18c0,-1.243 1.007,-2.25 2.25,-2.25l3.75,0l0,-4.5c0,-4.971 4.029,-9 9,-9c4.971,0 9,4.029 9,9l0,4.5l3.75,0c1.243,0 2.25,1.007 2.25,2.25l0,18c0,1.243 -1.007,2.25 -2.25,2.25Zm-15,-6l4.5,0l-1.177,-4.707c1.125,-0.432 1.927,-1.516 1.927,-2.792c0,-1.658 -1.343,-3.001 -3,-3.001c-1.657,0 -3,1.343 -3,3.001c0,1.276 0.802,2.36 1.927,2.792l-1.177,4.707Zm8.25,-21c0,-3.314 -2.686,-6 -6,-6c-3.314,0 -6,2.686 -6,6l0,4.5l12,0l0,-4.5Z" style="fill:#0c4159;"/><path id="Unlock-Icon" d="M948.584,465.48l-17,0c-0.828,0 -1.5,-0.671 -1.5,-1.5l0,-12c0,-0.828 0.672,-1.5 1.5,-1.5l2.5,0l0,-3c0,-3.314 2.686,-6 6,-6c3.314,0 6,2.686 6,6l-2,0c0,-2.209 -1.791,-4 -4,-4c-2.209,0 -4,1.791 -4,4l0,3l12.5,0c0.828,0 1.5,0.672 1.5,1.5l0,12c0,0.829 -0.672,1.5 -1.5,1.5Zm-8.5,-11c-1.105,0 -2,0.896 -2,2.001c0,0.851 0.535,1.573 1.284,1.861l-0.784,3.138l3,0l-0.784,-3.138c0.75,-0.288 1.284,-1.01 1.284,-1.861c0,-1.105 -0.895,-2.001 -2,-2.001Z" style="fill:#58b2dc;"/><path id="Time-Icon" d="M179.257,556.032c-6.351,0 -11.5,-5.148 -11.5,-11.5c0,-6.351 5.149,-11.5 11.5,-11.5c6.351,0 11.5,5.149 11.5,11.5c0,6.352 -5.149,11.5 -11.5,11.5Zm0,-20c-4.695,0 -8.5,3.806 -8.5,8.5c0,4.695 3.805,8.5 8.5,8.5c4.694,0 8.5,-3.805 8.5,-8.5c0,-4.694 -3.806,-8.5 -8.5,-8.5Zm5,10l-5,0c-0.829,0 -1.5,-0.671 -1.5,-1.5l0,-5c0,-0.828 0.671,-1.5 1.5,-1.5c0.828,0 1.5,0.672 1.5,1.5l0,3.5l3.5,0c0.828,0 1.5,0.672 1.5,1.5c0,0.829 -0.672,1.5 -1.5,1.5Z" style="fill:#8393a7;"/><path id="Time-Icon1" d="M62.512,456.887c-11.046,0 -20,-8.954 -20,-20c0,-11.046 8.954,-20 20,-20c11.046,0 20,8.954 20,20c0,11.046 -8.954,20 -20,20Zm0,-34.782c-8.164,0 -14.783,6.618 -14.783,14.782c0,8.164 6.619,14.783 14.783,14.783c8.164,0 14.782,-6.619 14.782,-14.783c0,-8.164 -6.618,-14.782 -14.782,-14.782Zm8.696,17.391l-8.696,0c-1.441,0 -2.609,-1.168 -2.609,-2.609l0,-8.695c0,-1.441 1.168,-2.609 2.609,-2.609c1.441,0 2.609,1.168 2.609,2.609l0,6.086l6.087,0c1.44,0 2.608,1.169 2.608,2.609c0,1.441 -1.168,2.609 -2.608,2.609Z" style="fill:#58b2dc;"/><path id="Time-Icon2" d="M548.157,283.764c-16.568,0 -29.999,-13.431 -29.999,-30c0,-16.568 13.431,-29.999 29.999,-29.999c16.569,0 30.001,13.431 30.001,29.999c0,16.569 -13.432,30 -30.001,30Zm0,-52.173c-12.246,0 -22.174,9.927 -22.174,22.173c0,12.246 9.928,22.175 22.174,22.175c12.247,0 22.174,-9.929 22.174,-22.175c0,-12.246 -9.927,-22.173 -22.174,-22.173Zm13.044,26.087l-13.044,0c-2.161,0 -3.913,-1.752 -3.913,-3.914l0,-13.043c0,-2.161 1.752,-3.913 3.913,-3.913c2.162,0 3.914,1.752 3.914,3.913l0,9.13l9.13,0c2.161,0 3.913,1.753 3.913,3.913c0,2.162 -1.752,3.914 -3.913,3.914Z" style="fill:#0c4159;"/><path id="Camera-Icon" d="M643.071,105.747l-35,0c-1.381,0 -2.5,-1.12 -2.5,-2.5l0,-23.333c0,-1.381 1.119,-2.501 2.5,-2.501l4.75,0c0.926,0 1.715,-0.458 2.173,-1.263l2.358,-4.141c0.458,-0.805 1.246,-1.263 2.172,-1.263l12.094,0c0.925,0 1.714,0.458 2.172,1.263l2.358,4.141c0.458,0.805 1.247,1.263 2.173,1.263l4.75,0c1.381,0 2.5,1.12 2.5,2.501l0,23.333c0,1.38 -1.119,2.5 -2.5,2.5Zm-17.5,-25c-5.523,0 -10,4.477 -10,9.999c0,5.524 4.477,10.001 10,10.001c5.523,0 10,-4.477 10,-10.001c0,-5.522 -4.477,-9.999 -10,-9.999Zm0,14.999c-2.762,0 -5,-2.237 -5,-5c0,-2.761 2.238,-4.999 5,-4.999c2.761,0 5,2.238 5,4.999c0,2.763 -2.239,5 -5,5Z" style="fill:#0c4159;"/><path id="Pin-Icon" d="M362.097,79.241c-1.92,6.462 -7.997,12.584 -7.997,12.584c0,0 -6.056,-6.106 -7.987,-12.553c-0.326,-0.908 -0.513,-1.931 -0.513,-2.952c0,-4.719 3.805,-8.495 8.5,-8.495c4.694,0 8.5,3.776 8.5,8.495c0,1.009 -0.183,2.023 -0.503,2.921Zm-7.997,-6.416c-1.933,0 -3.5,1.567 -3.5,3.5c0,1.933 1.567,3.5 3.5,3.5c1.933,0 3.5,-1.567 3.5,-3.5c0,-1.933 -1.567,-3.5 -3.5,-3.5Z" style="fill:#0c4159;"/><path id="Star-Icon" d="M685.751,218.246c0.091,-0.257 0.323,-0.422 0.597,-0.422c0.274,0 0.506,0.165 0.597,0.422l2.421,6.883c0.09,0.253 0.313,0.415 0.581,0.421l7.276,0.187c0.273,0.007 0.5,0.175 0.585,0.435c0.085,0.258 0.001,0.527 -0.215,0.694l-5.785,4.452c-0.211,0.163 -0.295,0.422 -0.22,0.677l2.073,7.012c0.077,0.262 -0.015,0.529 -0.237,0.689c-0.222,0.159 -0.505,0.162 -0.73,0.007l-5.986,-4.138c-0.221,-0.152 -0.499,-0.152 -0.72,0l-5.986,4.138c-0.225,0.155 -0.508,0.152 -0.73,-0.007c-0.222,-0.16 -0.314,-0.427 -0.237,-0.689l2.073,-7.012c0.075,-0.255 -0.009,-0.514 -0.22,-0.677l-5.786,-4.452c-0.216,-0.167 -0.299,-0.436 -0.214,-0.694c0.085,-0.26 0.312,-0.428 0.585,-0.435l7.276,-0.187c0.268,-0.006 0.491,-0.168 0.58,-0.421l2.422,-6.883Z" style="fill:#58b2dc;"/><path id="Star-Icon1" d="M758.2,603.622c0.237,-0.671 0.842,-1.1 1.558,-1.1c0.715,0 1.32,0.429 1.557,1.1l6.322,17.969c0.233,0.659 0.815,1.082 1.516,1.099l18.993,0.488c0.713,0.018 1.305,0.457 1.526,1.134c0.222,0.674 0.005,1.377 -0.56,1.812l-15.102,11.623c-0.551,0.424 -0.771,1.102 -0.574,1.767l5.41,18.305c0.202,0.681 -0.037,1.38 -0.617,1.796c-0.579,0.417 -1.319,0.424 -1.907,0.019l-15.624,-10.8c-0.578,-0.399 -1.303,-0.399 -1.881,0l-15.624,10.8c-0.588,0.405 -1.328,0.398 -1.907,-0.019c-0.58,-0.416 -0.819,-1.115 -0.618,-1.796l5.411,-18.305c0.197,-0.665 -0.024,-1.343 -0.574,-1.767l-15.103,-11.623c-0.564,-0.435 -0.78,-1.138 -0.559,-1.812c0.222,-0.677 0.813,-1.116 1.526,-1.134l18.994,-0.488c0.7,-0.017 1.283,-0.44 1.515,-1.099l6.322,-17.969Z" style="fill:#0c4159;"/><path id="Settings-Icon" d="M796.039,377.975l-2.251,0c-0.228,0.996 -0.635,1.919 -1.161,2.759l1.605,1.605c0.39,0.39 0.39,1.023 0,1.414l-1.415,1.414c-0.39,0.39 -1.023,0.39 -1.414,0l-1.595,-1.596c-0.842,0.533 -1.766,0.945 -2.769,1.173l0,2.231c0,0.552 -0.447,1 -1,1l-2,0c-0.552,0 -1,-0.448 -1,-1l0,-2.231c-1.002,-0.228 -1.927,-0.64 -2.768,-1.173l-1.596,1.596c-0.39,0.39 -1.023,0.39 -1.414,0l-1.414,-1.414c-0.391,-0.391 -0.391,-1.024 0,-1.414l1.604,-1.605c-0.525,-0.84 -0.933,-1.763 -1.161,-2.759l-2.251,0c-0.552,0 -1,-0.448 -1,-1l0,-2c0,-0.553 0.448,-1 1,-1l2.251,0c0.228,-0.997 0.636,-1.919 1.161,-2.76l-1.604,-1.604c-0.391,-0.391 -0.391,-1.024 0,-1.414l1.414,-1.415c0.391,-0.39 1.024,-0.39 1.414,0l1.596,1.596c0.841,-0.532 1.766,-0.944 2.768,-1.173l0,-2.23c0,-0.553 0.448,-1 1,-1l2,0c0.553,0 1,0.447 1,1l0,2.23c1.003,0.229 1.927,0.641 2.769,1.173l1.595,-1.596c0.391,-0.39 1.024,-0.39 1.414,0l1.415,1.415c0.39,0.39 0.39,1.023 0,1.414l-1.605,1.604c0.526,0.841 0.933,1.763 1.161,2.76l2.251,0c0.553,0 1,0.447 1,1l0,2c0,0.552 -0.447,1 -1,1Zm-11,-8c-3.314,0 -6,2.686 -6,5.999c0,3.315 2.686,6.001 6,6.001c3.314,0 6,-2.686 6,-6.001c0,-3.313 -2.686,-5.999 -6,-5.999Zm0,9c-1.657,0 -3,-1.344 -3,-3.001c0,-1.656 1.343,-3 3,-3c1.657,0 3,1.344 3,3c0,1.657 -1.343,3.001 -3,3.001Z" style="fill:#8393a7;"/><path id="Mail-Icon" d="M658.5,508.999l-21,0c-0.828,0 -1.5,-0.671 -1.5,-1.499l0,-16.001c0,-0.828 0.672,-1.499 1.5,-1.499l21,0c0.828,0 1.5,0.671 1.5,1.499l0,16.001c0,0.828 -0.672,1.499 -1.5,1.499Zm-1.5,-3l0,-11.575l-8.269,8.28c-0.203,0.203 -0.47,0.301 -0.736,0.295c-0.266,0.006 -0.534,-0.092 -0.737,-0.295l-8.258,-8.269l0,11.564l18,0Zm-1.439,-13l-15.132,0l7.566,7.576l7.566,-7.576Z" style="fill:#8393a7;"/><path id="Mail-Icon1" d="M662.981,386.589l-52.501,0c-2.071,0 -3.75,-1.679 -3.75,-3.749l0,-40.001c0,-2.071 1.679,-3.749 3.75,-3.749l52.501,0c2.07,0 3.749,1.678 3.749,3.749l0,40.001c0,2.07 -1.679,3.749 -3.749,3.749Zm-3.751,-7.501l0,-28.937l-20.672,20.7c-0.507,0.508 -1.176,0.752 -1.841,0.737c-0.664,0.015 -1.333,-0.229 -1.841,-0.737l-20.646,-20.674l0,28.911l45,0Zm-3.598,-32.5l-37.829,0l18.914,18.94l18.915,-18.94Z" style="fill:#0c4159;"/><path id="Heart-Icon1" d="M577.427,502.085c0,7.542 -12,15.5 -12,15.5c0,0 -12,-7.958 -12,-15.5c0,-3.59 2.91,-6.5 6.5,-6.5c2.315,0 4.348,1.211 5.5,3.034c1.151,-1.823 3.184,-3.034 5.5,-3.034c3.589,0 6.5,2.91 6.5,6.5l0,0Z" style="fill:#0c4159;fill-rule:nonzero;"/><path id="Music-Icon" d="M521.159,364.485l28.317,-5.835l-0.026,8.336l0,20.838l-0.02,0c0.002,2.42 -2.688,4.836 -6.427,5.603c-4.092,0.839 -7.881,-0.616 -8.461,-3.248c-0.579,-2.634 2.268,-5.449 6.361,-6.288c1.903,-0.391 3.736,-0.28 5.215,0.209l0,-16.421l-21.659,4.503l0,20.645l-0.02,0c0.002,2.419 -2.688,4.834 -6.427,5.601c-4.092,0.839 -7.881,-0.615 -8.461,-3.249c-0.579,-2.632 2.268,-5.448 6.361,-6.286c1.903,-0.392 3.736,-0.281 5.215,0.208l0,-24.616l0.032,0Z" style="fill:#0c4159;"/><g id="Rating-4.2c.5"><path id="Star-Icon2" d="M494.035,637.882c0.086,-0.24 0.306,-0.392 0.566,-0.392c0.26,0 0.48,0.152 0.566,0.392l2.298,6.4c0.084,0.235 0.296,0.386 0.55,0.392l6.903,0.173c0.26,0.008 0.475,0.163 0.555,0.405c0.081,0.24 0.002,0.49 -0.203,0.645l-5.489,4.141c-0.2,0.15 -0.28,0.392 -0.209,0.629l1.967,6.52c0.073,0.243 -0.014,0.492 -0.225,0.64c-0.21,0.149 -0.479,0.152 -0.693,0.007l-5.678,-3.847c-0.21,-0.143 -0.474,-0.143 -0.684,0l-5.679,3.847c-0.213,0.145 -0.482,0.142 -0.692,-0.007c-0.211,-0.148 -0.298,-0.397 -0.225,-0.64l1.967,-6.52c0.071,-0.237 -0.009,-0.479 -0.209,-0.629l-5.489,-4.141c-0.205,-0.155 -0.284,-0.405 -0.203,-0.645c0.08,-0.242 0.295,-0.397 0.554,-0.405l6.904,-0.173c0.254,-0.006 0.466,-0.157 0.55,-0.392l2.298,-6.4Z" style="fill:#0c4159;"/><clipPath id="_clip2"><path id="Star-Icon3" d="M494.035,637.882c0.086,-0.24 0.306,-0.392 0.566,-0.392c0.26,0 0.48,0.152 0.566,0.392l2.298,6.4c0.084,0.235 0.296,0.386 0.55,0.392l6.903,0.173c0.26,0.008 0.475,0.163 0.555,0.405c0.081,0.24 0.002,0.49 -0.203,0.645l-5.489,4.141c-0.2,0.15 -0.28,0.392 -0.209,0.629l1.967,6.52c0.073,0.243 -0.014,0.492 -0.225,0.64c-0.21,0.149 -0.479,0.152 -0.693,0.007l-5.678,-3.847c-0.21,-0.143 -0.474,-0.143 -0.684,0l-5.679,3.847c-0.213,0.145 -0.482,0.142 -0.692,-0.007c-0.211,-0.148 -0.298,-0.397 -0.225,-0.64l1.967,-6.52c0.071,-0.237 -0.009,-0.479 -0.209,-0.629l-5.489,-4.141c-0.205,-0.155 -0.284,-0.405 -0.203,-0.645c0.08,-0.242 0.295,-0.397 0.554,-0.405l6.904,-0.173c0.254,-0.006 0.466,-0.157 0.55,-0.392l2.298,-6.4Z"/></clipPath><g clip-path="url(#_clip2)"><rect id="Half-Inactive" x="494.604" y="637.487" width="10.91" height="20.457" style="fill:#58b2dc;"/></g><path id="Star-Icon4" d="M494.625,637.491l0.024,0.001l0.024,0.002l0.024,0.003l0.023,0.004l0.023,0.005l0.022,0.005l0.022,0.007l0.022,0.007l0.021,0.008l0.021,0.008l0.021,0.01l0.02,0.01l0.02,0.011l0.019,0.012l0.018,0.012l0.019,0.013l0.017,0.014l0.017,0.014l0.017,0.016l0.016,0.015l0.015,0.017l0.015,0.017l0.014,0.018l0.013,0.018l0.013,0.019l0.012,0.019l0.012,0.02l0.01,0.021l0.01,0.021l0.01,0.022l0.008,0.022l2.298,6.4l0.008,0.022l0.009,0.021l0.01,0.021l0.01,0.02l0.011,0.02l0.012,0.019l0.013,0.019l0.013,0.018l0.013,0.017l0.015,0.017l0.015,0.016l0.015,0.016l0.016,0.015l0.017,0.014l0.017,0.014l0.017,0.013l0.018,0.012l0.019,0.012l0.019,0.011l0.02,0.01l0.02,0.01l0.02,0.009l0.021,0.008l0.021,0.007l0.021,0.007l0.022,0.006l0.022,0.005l0.023,0.004l0.023,0.003l0.023,0.003l0.024,0.002l0.023,0.001l6.903,0.173l0.024,0.002l0.024,0.002l0.024,0.002l0.023,0.004l0.023,0.005l0.023,0.005l0.022,0.006l0.022,0.007l0.022,0.007l0.021,0.009l0.02,0.009l0.021,0.01l0.019,0.011l0.02,0.011l0.018,0.012l0.019,0.013l0.018,0.013l0.017,0.014l0.016,0.015l0.017,0.016l0.015,0.016l0.015,0.016l0.014,0.018l0.014,0.018l0.013,0.018l0.012,0.019l0.012,0.02l0.011,0.02l0.01,0.021l0.009,0.021l0.009,0.022l0.008,0.023l0.007,0.022l0.006,0.023l0.006,0.022l0.004,0.023l0.003,0.023l0.003,0.022l0.002,0.023l0,0.022l0,0.022l-0.001,0.023l-0.002,0.022l-0.003,0.022l-0.003,0.021l-0.005,0.022l-0.005,0.021l-0.006,0.021l-0.007,0.021l-0.008,0.021l-0.009,0.02l-0.009,0.02l-0.011,0.02l-0.011,0.019l-0.012,0.019l-0.013,0.019l-0.013,0.018l-0.014,0.018l-0.015,0.017l-0.016,0.017l-0.017,0.016l-0.017,0.016l-0.018,0.015l-0.019,0.015l-5.489,4.141l-0.018,0.014l-0.018,0.015l-0.017,0.016l-0.016,0.015l-0.016,0.017l-0.015,0.017l-0.014,0.017l-0.013,0.017l-0.013,0.018l-0.012,0.019l-0.011,0.018l-0.01,0.02l-0.009,0.019l-0.009,0.02l-0.008,0.02l-0.007,0.02l-0.007,0.02l-0.005,0.021l-0.005,0.021l-0.004,0.021l-0.003,0.022l-0.002,0.021l-0.002,0.022l-0.001,0.022l0.001,0.022l0.001,0.022l0.002,0.022l0.002,0.022l0.004,0.022l0.005,0.023l0.005,0.022l0.006,0.022l1.967,6.52l0.006,0.023l0.006,0.023l0.004,0.023l0.004,0.022l0.002,0.023l0.002,0.023l0.001,0.022l0,0.023l-0.001,0.022l-0.001,0.022l-0.003,0.022l-0.003,0.022l-0.005,0.022l-0.005,0.021l-0.006,0.022l-0.007,0.021l-0.008,0.02l-0.008,0.021l-0.01,0.02l-0.01,0.02l-0.011,0.019l-0.011,0.019l-0.013,0.019l-0.013,0.018l-0.015,0.018l-0.014,0.017l-0.016,0.017l-0.017,0.016l-0.017,0.016l-0.018,0.015l-0.018,0.015l-0.02,0.014l-0.02,0.014l-0.02,0.013l-0.02,0.011l-0.021,0.011l-0.021,0.01l-0.022,0.01l-0.021,0.008l-0.022,0.007l-0.022,0.007l-0.022,0.006l-0.022,0.005l-0.022,0.004l-0.023,0.003l-0.022,0.003l-0.022,0.001l-0.023,0.001l-0.023,-0.001l-0.022,-0.001l-0.023,-0.002l-0.022,-0.002l-0.022,-0.004l-0.023,-0.004l-0.022,-0.006l-0.022,-0.006l-0.022,-0.007l-0.021,-0.008l-0.022,-0.009l-0.021,-0.01l-0.021,-0.01l-0.021,-0.011l-0.021,-0.013l-0.02,-0.013l-5.678,-3.847l-0.02,-0.013l-0.02,-0.012l-0.021,-0.011l-0.02,-0.011l-0.021,-0.009l-0.021,-0.009l-0.022,-0.008l-0.021,-0.007l-0.022,-0.007l-0.022,-0.005l-0.021,-0.005l-0.022,-0.003l-0.022,-0.003l-0.023,-0.002l-0.022,-0.002l-0.022,0l-0.022,0l-0.022,0.002l-0.023,0.002l-0.022,0.003l-0.022,0.003l-0.022,0.005l-0.021,0.005l-0.022,0.007l-0.022,0.007l-0.021,0.008l-0.021,0.009l-0.021,0.009l-0.021,0.011l-0.02,0.011l-0.02,0.012l-0.02,0.013l-5.679,3.847l-0.02,0.013l-0.02,0.013l-0.021,0.011l-0.021,0.01l-0.021,0.01l-0.022,0.009l-0.021,0.008l-0.022,0.007l-0.022,0.006l-0.023,0.006l-0.022,0.004l-0.022,0.004l-0.023,0.002l-0.022,0.002l-0.023,0.001l-0.022,0.001l-0.023,-0.001l-0.022,-0.001l-0.023,-0.003l-0.022,-0.003l-0.022,-0.004l-0.022,-0.005l-0.022,-0.006l-0.022,-0.007l-0.022,-0.007l-0.022,-0.008l-0.021,-0.01l-0.021,-0.01l-0.021,-0.011l-0.02,-0.011l-0.021,-0.013l-0.019,-0.014l-0.02,-0.014l-0.018,-0.015l-0.018,-0.015l-0.018,-0.016l-0.016,-0.016l-0.016,-0.017l-0.015,-0.017l-0.014,-0.018l-0.013,-0.018l-0.013,-0.019l-0.011,-0.019l-0.011,-0.019l-0.011,-0.02l-0.009,-0.02l-0.008,-0.021l-0.008,-0.02l-0.007,-0.021l-0.006,-0.022l-0.005,-0.021l-0.005,-0.022l-0.003,-0.022l-0.003,-0.022l-0.002,-0.022l0,-0.022l0,-0.023l0.001,-0.022l0.001,-0.023l0.003,-0.023l0.004,-0.022l0.004,-0.023l0.006,-0.023l0.006,-0.023l1.967,-6.52l0.006,-0.022l0.005,-0.022l0.005,-0.023l0.004,-0.022l0.002,-0.022l0.002,-0.022l0.001,-0.022l0,-0.022l0,-0.022l-0.002,-0.022l-0.002,-0.021l-0.003,-0.022l-0.004,-0.021l-0.005,-0.021l-0.005,-0.021l-0.007,-0.02l-0.007,-0.02l-0.008,-0.02l-0.009,-0.02l-0.009,-0.019l-0.01,-0.02l-0.011,-0.018l-0.012,-0.019l-0.013,-0.018l-0.013,-0.017l-0.014,-0.017l-0.015,-0.017l-0.016,-0.017l-0.016,-0.015l-0.017,-0.016l-0.018,-0.015l-0.018,-0.014l-5.489,-4.141l-0.019,-0.015l-0.018,-0.015l-0.017,-0.016l-0.017,-0.016l-0.016,-0.017l-0.015,-0.017l-0.014,-0.018l-0.014,-0.018l-0.012,-0.019l-0.012,-0.019l-0.011,-0.019l-0.011,-0.02l-0.009,-0.02l-0.009,-0.02l-0.008,-0.021l-0.007,-0.021l-0.006,-0.021l-0.005,-0.021l-0.005,-0.022l-0.003,-0.021l-0.003,-0.022l-0.002,-0.022l-0.001,-0.023l0,-0.022l0,-0.022l0.002,-0.023l0.003,-0.022l0.003,-0.023l0.004,-0.023l0.006,-0.022l0.006,-0.023l0.007,-0.022l0.008,-0.023l0.009,-0.022l0.009,-0.021l0.01,-0.021l0.011,-0.02l0.012,-0.02l0.012,-0.019l0.013,-0.018l0.014,-0.018l0.014,-0.018l0.015,-0.016l0.015,-0.016l0.016,-0.016l0.017,-0.015l0.017,-0.014l0.018,-0.013l0.018,-0.013l0.019,-0.012l0.019,-0.011l0.02,-0.011l0.02,-0.01l0.021,-0.009l0.021,-0.009l0.022,-0.007l0.022,-0.007l0.022,-0.006l0.022,-0.005l0.023,-0.005l0.024,-0.004l0.023,-0.002l0.024,-0.002l0.024,-0.002l6.904,-0.173l0.023,-0.001l0.024,-0.002l0.023,-0.003l0.023,-0.003l0.022,-0.004l0.023,-0.005l0.022,-0.006l0.021,-0.007l0.021,-0.007l0.021,-0.008l0.02,-0.009l0.02,-0.01l0.02,-0.01l0.019,-0.011l0.019,-0.012l0.018,-0.012l0.017,-0.013l0.017,-0.014l0.017,-0.014l0.016,-0.015l0.015,-0.016l0.015,-0.016l0.015,-0.017l0.013,-0.017l0.013,-0.018l0.013,-0.019l0.011,-0.019l0.012,-0.02l0.01,-0.02l0.01,-0.021l0.009,-0.021l0.008,-0.022l2.298,-6.4l0.008,-0.022l0.009,-0.022l0.01,-0.021l0.011,-0.021l0.012,-0.02l0.012,-0.019l0.013,-0.019l0.013,-0.018l0.014,-0.018l0.015,-0.017l0.015,-0.017l0.016,-0.015l0.017,-0.016l0.017,-0.014l0.017,-0.014l0.019,-0.013l0.018,-0.012l0.019,-0.012l0.02,-0.011l0.02,-0.01l0.021,-0.01l0.021,-0.008l0.021,-0.008l0.022,-0.007l0.022,-0.007l0.023,-0.005l0.022,-0.005l0.024,-0.004l0.023,-0.003l0.024,-0.002l0.024,-0.001l0.024,-0.001l0.024,0.001Zm-1.95,7.138l-0.018,0.047l-0.024,0.056l-0.026,0.055l-0.027,0.053l-0.029,0.053l-0.033,0.052l-0.033,0.05l-0.035,0.049l-0.038,0.048l-0.038,0.044l-0.041,0.045l-0.043,0.044l-0.043,0.04l-0.046,0.04l-0.047,0.038l-0.048,0.036l-0.05,0.034l-0.05,0.031l-0.052,0.03l-0.053,0.028l-0.054,0.026l-0.056,0.024l-0.056,0.022l-0.056,0.02l-0.057,0.017l-0.056,0.015l-0.06,0.014l-0.059,0.011l-0.058,0.009l-0.059,0.007l-0.061,0.004l-0.05,0.002l-5.732,0.144l4.543,3.428l0.038,0.03l0.046,0.038l0.045,0.04l0.043,0.042l0.041,0.044l0.039,0.044l0.039,0.047l0.036,0.048l0.034,0.049l0.032,0.05l0.031,0.052l0.029,0.054l0.027,0.054l0.024,0.055l0.022,0.056l0.021,0.057l0.017,0.057l0.016,0.058l0.013,0.06l0.012,0.059l0.008,0.06l0.007,0.06l0.004,0.06l0.002,0.061l-0.001,0.06l-0.003,0.061l-0.005,0.06l-0.008,0.06l-0.009,0.059l-0.012,0.059l-0.014,0.059l-0.014,0.049l-1.637,5.427l4.752,-3.22l0.043,-0.027l0.052,-0.032l0.052,-0.029l0.054,-0.027l0.055,-0.025l0.054,-0.022l0.057,-0.022l0.057,-0.019l0.059,-0.017l0.057,-0.014l0.058,-0.012l0.06,-0.01l0.06,-0.008l0.058,-0.006l0.059,-0.003l0.061,-0.001l0.061,0.001l0.058,0.003l0.059,0.006l0.06,0.008l0.06,0.01l0.058,0.012l0.057,0.014l0.059,0.017l0.057,0.019l0.057,0.022l0.054,0.022l0.055,0.025l0.054,0.028l0.052,0.028l0.052,0.032l0.043,0.027l4.752,3.22l-1.637,-5.427l-0.014,-0.049l-0.014,-0.058l-0.012,-0.06l-0.009,-0.059l-0.008,-0.06l-0.005,-0.06l-0.003,-0.061l-0.001,-0.06l0.002,-0.061l0.004,-0.06l0.007,-0.06l0.008,-0.06l0.011,-0.059l0.014,-0.059l0.016,-0.059l0.017,-0.057l0.02,-0.057l0.023,-0.056l0.024,-0.055l0.027,-0.054l0.029,-0.054l0.03,-0.052l0.032,-0.05l0.035,-0.049l0.036,-0.048l0.039,-0.047l0.039,-0.044l0.042,-0.044l0.043,-0.042l0.044,-0.04l0.046,-0.038l0.038,-0.03l4.543,-3.428l-5.732,-0.144l-0.051,-0.002l-0.06,-0.004l-0.059,-0.007l-0.058,-0.009l-0.06,-0.011l-0.059,-0.014l-0.057,-0.015l-0.056,-0.017l-0.057,-0.02l-0.056,-0.022l-0.055,-0.024l-0.054,-0.026l-0.053,-0.028l-0.051,-0.03l-0.051,-0.031l-0.05,-0.034l-0.047,-0.036l-0.048,-0.038l-0.045,-0.039l-0.044,-0.041l-0.043,-0.043l-0.041,-0.045l-0.038,-0.044l-0.037,-0.048l-0.036,-0.049l-0.033,-0.05l-0.032,-0.052l-0.03,-0.053l-0.027,-0.053l-0.026,-0.054l-0.024,-0.057l-0.018,-0.048l-1.926,-5.364l-1.926,5.364Z" style="fill:#0c4159;"/><path id="Star-Icon5" d="M469.486,637.882c0.087,-0.24 0.306,-0.392 0.567,-0.392c0.26,0 0.479,0.152 0.566,0.392l2.297,6.4c0.085,0.235 0.297,0.386 0.551,0.392l6.903,0.173c0.259,0.008 0.474,0.163 0.555,0.405c0.081,0.24 0.001,0.49 -0.204,0.645l-5.488,4.141c-0.2,0.15 -0.28,0.392 -0.209,0.629l1.966,6.52c0.074,0.243 -0.013,0.492 -0.224,0.64c-0.21,0.149 -0.479,0.152 -0.693,0.007l-5.678,-3.847c-0.211,-0.143 -0.474,-0.143 -0.684,0l-5.679,3.847c-0.213,0.145 -0.482,0.142 -0.693,-0.007c-0.211,-0.148 -0.297,-0.397 -0.224,-0.64l1.966,-6.52c0.072,-0.237 -0.008,-0.479 -0.208,-0.629l-5.489,-4.141c-0.205,-0.155 -0.284,-0.405 -0.204,-0.645c0.081,-0.242 0.296,-0.397 0.555,-0.405l6.903,-0.173c0.255,-0.006 0.466,-0.157 0.551,-0.392l2.297,-6.4Z" style="fill:#0c4159;"/><path id="Star-Icon6" d="M444.938,637.882c0.086,-0.24 0.306,-0.392 0.566,-0.392c0.261,0 0.48,0.152 0.566,0.392l2.298,6.4c0.084,0.235 0.296,0.386 0.551,0.392l6.903,0.173c0.259,0.008 0.474,0.163 0.554,0.405c0.081,0.24 0.002,0.49 -0.203,0.645l-5.489,4.141c-0.2,0.15 -0.28,0.392 -0.208,0.629l1.966,6.52c0.073,0.243 -0.014,0.492 -0.224,0.64c-0.211,0.149 -0.48,0.152 -0.693,0.007l-5.679,-3.847c-0.21,-0.143 -0.473,-0.143 -0.684,0l-5.678,3.847c-0.214,0.145 -0.482,0.142 -0.693,-0.007c-0.211,-0.148 -0.298,-0.397 -0.224,-0.64l1.966,-6.52c0.072,-0.237 -0.009,-0.479 -0.209,-0.629l-5.488,-4.141c-0.206,-0.155 -0.284,-0.405 -0.204,-0.645c0.081,-0.242 0.296,-0.397 0.555,-0.405l6.903,-0.173c0.254,-0.006 0.466,-0.157 0.55,-0.392l2.298,-6.4Z" style="fill:#0c4159;"/><path id="Star-Icon7" d="M420.39,637.882c0.086,-0.24 0.306,-0.392 0.566,-0.392c0.26,0 0.48,0.152 0.566,0.392l2.298,6.4c0.084,0.235 0.296,0.386 0.55,0.392l6.903,0.173c0.26,0.008 0.475,0.163 0.555,0.405c0.081,0.24 0.002,0.49 -0.203,0.645l-5.489,4.141c-0.2,0.15 -0.28,0.392 -0.209,0.629l1.967,6.52c0.073,0.243 -0.014,0.492 -0.224,0.64c-0.211,0.149 -0.48,0.152 -0.694,0.007l-5.678,-3.847c-0.211,-0.143 -0.474,-0.143 -0.684,0l-5.679,3.847c-0.213,0.145 -0.482,0.142 -0.693,-0.007c-0.21,-0.148 -0.297,-0.397 -0.224,-0.64l1.967,-6.52c0.071,-0.237 -0.009,-0.479 -0.209,-0.629l-5.489,-4.141c-0.205,-0.155 -0.284,-0.405 -0.203,-0.645c0.08,-0.242 0.295,-0.397 0.554,-0.405l6.904,-0.173c0.254,-0.006 0.466,-0.157 0.55,-0.392l2.298,-6.4Z" style="fill:#0c4159;"/><path id="Star-Icon8" d="M395.842,637.882c0.086,-0.24 0.305,-0.392 0.566,-0.392c0.26,0 0.48,0.152 0.566,0.392l2.297,6.4c0.085,0.235 0.296,0.386 0.551,0.392l6.903,0.173c0.259,0.008 0.474,0.163 0.555,0.405c0.08,0.24 0.001,0.49 -0.204,0.645l-5.488,4.141c-0.2,0.15 -0.28,0.392 -0.209,0.629l1.966,6.52c0.074,0.243 -0.013,0.492 -0.224,0.64c-0.21,0.149 -0.48,0.152 -0.693,0.007l-5.679,-3.847c-0.21,-0.143 -0.473,-0.143 -0.683,0l-5.679,3.847c-0.213,0.145 -0.482,0.142 -0.693,-0.007c-0.211,-0.148 -0.298,-0.397 -0.224,-0.64l1.966,-6.52c0.072,-0.237 -0.008,-0.479 -0.208,-0.629l-5.489,-4.141c-0.205,-0.155 -0.284,-0.405 -0.204,-0.645c0.081,-0.242 0.296,-0.397 0.555,-0.405l6.903,-0.173c0.255,-0.006 0.466,-0.157 0.551,-0.392l2.298,-6.4Z" style="fill:#0c4159;"/></g><path id="Turn-Off-Icon" d="M1011.56,206.431l0,-5.217c8.164,0 14.783,-6.618 14.783,-14.782c0,-5.426 -2.933,-10.15 -7.291,-12.72c-0.217,-0.123 -0.431,-0.285 -0.485,-0.325c-0.372,-0.312 -0.918,-0.948 -0.925,-2.01c0,-1.443 1.17,-2.614 2.614,-2.614c0.222,0.003 0.817,0.087 1.519,0.489c5.855,3.487 9.785,9.869 9.785,17.18c0,11.045 -8.954,19.999 -20,19.999Zm7.007,-33.044c0.01,0.007 0.02,0.017 0.029,0.025c-0.048,-0.039 -0.051,-0.042 -0.029,-0.025Zm-7.007,12.175c-1.44,0 -2.609,-1.168 -2.609,-2.609l0,-15.652c0,-1.441 1.169,-2.609 2.609,-2.609c1.441,0 2.609,1.168 2.609,2.609l0,15.652c0,1.441 -1.168,2.609 -2.609,2.609Zm-7.007,-12.237c-0.053,0.04 -0.268,0.203 -0.485,0.326c-4.357,2.574 -7.29,7.308 -7.29,12.743c0,8.179 6.618,14.81 14.782,14.81l0,5.227c-11.045,0 -20,-8.971 -20,-20.037c0,-7.324 3.93,-13.718 9.786,-17.212c0.701,-0.403 1.296,-0.487 1.519,-0.49c1.443,0 2.614,1.173 2.614,2.619c-0.007,1.065 -0.553,1.701 -0.926,2.014Zm-0.028,0.025c0.009,-0.007 0.019,-0.017 0.028,-0.025c0.022,-0.017 0.019,-0.015 -0.028,0.025Z" style="fill:#0c4159;"/><path id="Bolt-Icon" d="M1050.67,410.06l-4.618,15.479l8.466,0l-16.163,19.914l4.618,-15.488l-8.455,0l16.152,-19.905Z" style="fill:#0c4159;"/><path id="Shuffle-Icon" d="M916.895,183.336l0,1.395c0,1.037 0.473,1.921 1.335,2.496l9.328,6.219c0.863,0.575 1.336,1.459 1.336,2.496l0,2.894l0,0.501l0,1.5c0,0.828 -0.671,1.5 -1.5,1.5c-0.828,0 -1.499,-0.672 -1.499,-1.5l0,-2.895c0,-1.037 -0.474,-1.921 -1.337,-2.496l-9.328,-6.219c-0.862,-0.575 -1.336,-1.459 -1.336,-2.496l0,-3.395l-3,0l4.5,-4.999l4.5,4.999l-2.999,0Zm1.335,12.11c-0.862,0.575 -1.335,1.459 -1.335,2.496l0,0.894l0,0.501l0,1.5c0,0.828 -0.672,1.5 -1.501,1.5c-0.828,0 -1.5,-0.672 -1.5,-1.5l0,-4.895c0,-1.037 0.474,-1.921 1.336,-2.496l1.164,-0.776l3,2l-1.164,0.776Zm6.328,-8.219c0.863,-0.575 1.337,-1.459 1.337,-2.496l0,-1.395l-3.001,0l4.5,-4.999l4.5,4.999l-3,0l0,3.395c0,1.037 -0.473,1.921 -1.336,2.496l-1.164,0.776l-3,-2l1.164,-0.776Z" style="fill:#0c4159;"/><path id="Shuffle-Icon1" d="M123.771,502.058l-1.394,0c-1.037,0 -1.922,0.473 -2.497,1.336l-6.218,9.328c-0.575,0.863 -1.46,1.336 -2.497,1.336l-2.894,0l-0.5,0l-1.5,0c-0.828,0 -1.5,-0.672 -1.5,-1.5c0,-0.829 0.672,-1.5 1.5,-1.5l2.894,0c1.037,0 1.922,-0.474 2.497,-1.336l6.218,-9.328c0.575,-0.863 1.46,-1.336 2.497,-1.336l3.394,0l0,-3l5,4.5l-5,4.5l0,-3Zm-12.109,1.336c-0.575,-0.863 -1.46,-1.336 -2.497,-1.336l-0.894,0l-0.5,0l-1.5,0c-0.828,0 -1.5,-0.672 -1.5,-1.5c0,-0.829 0.672,-1.5 1.5,-1.5l4.894,0c1.037,0 1.922,0.473 2.497,1.336l0.776,1.164l-2,3l-0.776,-1.164Zm8.218,6.328c0.575,0.862 1.46,1.336 2.497,1.336l1.394,0l0,-3l5,4.5l-5,4.5l0,-3l-3.394,0c-1.037,0 -1.922,-0.473 -2.497,-1.336l-0.776,-1.164l2,-3l0.776,1.164Z" style="fill:#0c4159;"/><path id="Repeat-Icon" d="M918.751,541.31l-26.667,0l0,5l-8.333,-7.5l8.333,-7.5l0,5l21.667,0c2.761,0 5,-2.238 5,-5l0,-3.333l5,-4.5l0,12.833c0,2.762 -2.239,5 -5,5Zm-3.334,-20l-21.666,0c-2.762,0 -5,2.239 -5,5l0,3.334l-5,4.499l0,-12.833c0,-2.761 2.239,-5 5,-5l26.666,0l0,-5l8.334,7.5l-8.334,7.5l0,-5Z" style="fill:#58b2dc;"/><path id="Trash-Icon" d="M464.012,579.702l-2.727,0l0,26.364c0,1.507 -1.221,2.728 -2.727,2.728l-23.637,0c-1.506,0 -2.727,-1.221 -2.727,-2.728l0,-26.364l-2.727,0c-1.506,0 -2.727,-1.22 -2.727,-2.726c0,-1.507 1.221,-2.728 2.727,-2.728l8.182,0c0,-5.02 4.07,-9.091 9.091,-9.091c5.02,0 9.09,4.071 9.09,9.091l8.182,0c1.507,0 2.728,1.221 2.728,2.728c0,1.506 -1.221,2.726 -2.728,2.726Zm-19.091,23.637l3.637,0l0,-21.818l-3.637,0l0,21.818Zm-7.272,-21.818l0,21.818l3.636,0l0,-21.818l-3.636,0Zm9.091,-12.727c-3.013,0 -5.455,2.442 -5.455,5.454l10.909,0c0,-3.012 -2.442,-5.454 -5.454,-5.454Zm9.09,12.727l-3.636,0l0,21.818l3.636,0l0,-21.818Z" style="fill:#0c4159;"/><path id="Backward-Icon" d="M247.308,670.197c-0.25,0.145 -0.533,0.143 -0.781,-0.004l-9.827,-5.835l0,5.154c0,0.291 -0.142,0.54 -0.392,0.685c-0.25,0.145 -0.533,0.143 -0.781,-0.004l-10.446,-6.202c-0.246,-0.146 -0.386,-0.393 -0.386,-0.681c0,-0.29 0.14,-0.536 0.386,-0.682l10.446,-6.202c0.248,-0.148 0.531,-0.15 0.781,-0.004c0.25,0.144 0.392,0.393 0.392,0.685l0,5.153l9.827,-5.834c0.248,-0.148 0.531,-0.15 0.781,-0.004c0.25,0.144 0.392,0.393 0.392,0.685l0,12.405c0,0.291 -0.142,0.54 -0.392,0.685Z" style="fill:#0c4159;"/><path id="Volume-Off-Icon" d="M1023.58,540.341l6.29,6.29c0.579,0.579 0.579,1.517 0,2.097c-0.579,0.579 -1.518,0.579 -2.097,0l-6.29,-6.29l-6.29,6.29c-0.579,0.579 -1.517,0.579 -2.096,0c-0.579,-0.58 -0.579,-1.518 0,-2.097l6.29,-6.29l-6.29,-6.29c-0.579,-0.58 -0.579,-1.517 0,-2.097c0.579,-0.579 1.517,-0.579 2.096,0l6.29,6.291l6.29,-6.291c0.579,-0.579 1.518,-0.579 2.097,0c0.579,0.58 0.579,1.517 0,2.097l-6.29,6.29Zm-16.799,17.585c-1.104,-0.159 -2.098,-0.653 -2.86,-1.397l-0.082,0l-8.825,-8.825l-10.297,0c-2.437,0 -4.413,-1.976 -4.413,-4.414l0,-5.883c0,-2.438 1.976,-4.413 4.413,-4.413l10.297,0l8.825,-8.826l0.082,0c0.762,-0.744 1.756,-1.237 2.86,-1.398l0,-0.072l1.471,0l0,35.302l-1.471,0l0,-0.074Z" style="fill:#0c4159;"/><path id="Resize-Plus-Icon" d="M456.801,278.277l8.64,-8.602l-10.027,-10.028c-1.479,-1.478 -1.479,-3.874 0,-5.354c1.479,-1.478 3.876,-1.478 5.356,0l10.038,10.039l8.591,-8.555l0,22.5l-22.598,0Zm3.969,-36.014c-1.48,1.478 -3.877,1.478 -5.356,0c-1.479,-1.48 -1.479,-3.876 0,-5.355l10.027,-10.028l-8.64,-8.603l22.598,0l0,22.5l-8.591,-8.553l-10.038,10.039Zm-27.452,27.437l8.616,8.577l-22.535,0l0,-22.435l8.567,8.529l10.004,-10.004c1.474,-1.473 3.865,-1.473 5.34,0c1.475,1.476 1.475,3.867 0,5.34l-9.992,9.993Zm4.652,-27.512l-10.004,-10.003l-8.567,8.529l0,-22.437l22.535,0l-8.616,8.579l9.992,9.992c1.475,1.474 1.475,3.865 0,5.34c-1.475,1.474 -3.866,1.474 -5.34,0Z" style="fill:#0c4159;"/><path id="Redo-Icon" d="M309.74,658.309l-5.217,0l-9.194,0l5.637,-5.612c-2.709,-2.706 -6.438,-4.388 -10.571,-4.388c-8.284,0 -15,6.716 -15,15c0,8.284 6.716,15 15,15c5.986,0 11.137,-3.515 13.544,-8.585c0,0 0.42,-1.415 2.289,-1.415c1.381,0 2.5,1.119 2.5,2.5c0,0.476 -0.168,0.896 -0.4,1.275c-3.254,6.636 -10.043,11.225 -17.933,11.225c-11.046,0 -20,-8.954 -20,-20c0,-11.045 8.954,-20 20,-20c5.519,0 10.496,2.25 14.107,5.867l5.893,-5.867l0,15l-0.655,0Z" style="fill:#0c4159;"/><path id="Checked-Circle-Icon" d="M634.308,614.029c-11.045,0 -20,-8.954 -20,-20c0,-11.045 8.955,-20 20,-20c11.046,0 20,8.955 20,20c0,11.046 -8.954,20 -20,20Zm10.534,-27.106c-1.024,-0.982 -2.684,-0.982 -3.707,0l-9.324,8.854l-2.663,-2.478c-1.024,-0.981 -2.684,-0.981 -3.707,0c-1.024,0.984 -1.024,2.576 0,3.558l4.517,4.255c1.024,0.983 2.683,0.983 3.707,0l11.177,-10.631c1.023,-0.982 1.023,-2.576 0,-3.558Z" style="fill:#58b2dc;"/><path id="Warning-Circle-Icon" d="M541.968,667.663c-6.351,0 -11.5,-5.149 -11.5,-11.5c0,-6.351 5.149,-11.501 11.5,-11.501c6.352,0 11.501,5.15 11.501,11.501c0,6.351 -5.149,11.5 -11.501,11.5Zm1.5,-16.5c0,-0.829 -0.671,-1.5 -1.5,-1.5c-0.828,0 -1.5,0.671 -1.5,1.5l0,6c0,0.828 0.672,1.5 1.5,1.5c0.829,0 1.5,-0.672 1.5,-1.5l0,-6Zm-1.5,8.5c-0.828,0 -1.5,0.671 -1.5,1.5c0,0.828 0.672,1.5 1.5,1.5c0.829,0 1.5,-0.672 1.5,-1.5c0,-0.829 -0.671,-1.5 -1.5,-1.5Z" style="fill:#0c4159;"/><path id="Close-Circle-Icon" d="M574.082,667.663c-6.351,0 -11.5,-5.149 -11.5,-11.5c0,-6.351 5.149,-11.501 11.5,-11.501c6.351,0 11.5,5.15 11.5,11.501c0,6.351 -5.149,11.5 -11.5,11.5Zm4.07,-15.588c-0.558,-0.557 -1.462,-0.557 -2.02,0l-2.059,2.059l-2.059,-2.059c-0.558,-0.557 -1.462,-0.557 -2.02,0c-0.558,0.558 -0.558,1.462 0,2.019l2.059,2.06l-2.059,2.059c-0.558,0.557 -0.558,1.462 0,2.02c0.558,0.558 1.462,0.558 2.02,0l2.059,-2.059l2.059,2.059c0.558,0.558 1.462,0.558 2.02,0c0.557,-0.558 0.557,-1.463 0,-2.02l-2.06,-2.059l2.06,-2.06c0.557,-0.557 0.557,-1.461 0,-2.019Z" style="fill:#0c4159;"/><path id="Info-Circle-Icon" d="M651.827,603.762c-6.351,0 -11.5,5.149 -11.5,11.5c0,6.352 5.149,11.5 11.5,11.5c6.351,0 11.5,-5.148 11.5,-11.5c0,-6.351 -5.149,-11.5 -11.5,-11.5Zm1.5,16.5c0,0.828 -0.672,1.5 -1.5,1.5c-0.829,0 -1.5,-0.672 -1.5,-1.5l0,-6c0,-0.828 0.671,-1.5 1.5,-1.5c0.828,0 1.5,0.672 1.5,1.5l0,6Zm-1.5,-8.5c-0.829,0 -1.5,-0.672 -1.5,-1.5c0,-0.828 0.671,-1.5 1.5,-1.5c0.828,0 1.5,0.672 1.5,1.5c0,0.828 -0.672,1.5 -1.5,1.5Z" style="fill:#58b2dc;"/><path id="List-Icon" d="M906.22,595.385l-15,0c-0.829,0 -1.5,-0.671 -1.5,-1.499c0,-0.829 0.671,-1.501 1.5,-1.501l15,0c0.828,0 1.499,0.672 1.499,1.501c0,0.828 -0.671,1.499 -1.499,1.499Zm0,-5.999l-15,0c-0.829,0 -1.5,-0.672 -1.5,-1.501c0,-0.828 0.671,-1.5 1.5,-1.5l15,0c0.828,0 1.499,0.672 1.499,1.5c0,0.829 -0.671,1.501 -1.499,1.501Zm0,-6.001l-15,0c-0.829,0 -1.5,-0.671 -1.5,-1.499c0,-0.829 0.671,-1.5 1.5,-1.5l15,0c0.828,0 1.499,0.671 1.499,1.5c0,0.828 -0.671,1.499 -1.499,1.499Zm-21,18.001c-0.829,0 -1.501,-0.672 -1.501,-1.5c0,-0.829 0.672,-1.501 1.501,-1.501c0.828,0 1.5,0.672 1.5,1.501c0,0.828 -0.672,1.5 -1.5,1.5Zm0,-6.001c-0.829,0 -1.501,-0.671 -1.501,-1.499c0,-0.829 0.672,-1.501 1.501,-1.501c0.828,0 1.5,0.672 1.5,1.501c0,0.828 -0.672,1.499 -1.5,1.499Zm0,-5.999c-0.829,0 -1.501,-0.672 -1.501,-1.501c0,-0.828 0.672,-1.5 1.501,-1.5c0.828,0 1.5,0.672 1.5,1.5c0,0.829 -0.672,1.501 -1.5,1.501Zm0,-6.001c-0.829,0 -1.501,-0.671 -1.501,-1.499c0,-0.829 0.672,-1.5 1.501,-1.5c0.828,0 1.5,0.671 1.5,1.5c0,0.828 -0.672,1.499 -1.5,1.499Zm6,15l15,0c0.828,0 1.499,0.672 1.499,1.501c0,0.828 -0.671,1.5 -1.499,1.5l-15,0c-0.829,0 -1.5,-0.672 -1.5,-1.5c0,-0.829 0.671,-1.501 1.5,-1.501Z" style="fill:#0c4159;"/><path id="Dots-Vertical-Icon" d="M594.352,297.017c1.172,1.172 1.171,3.071 0,4.243c-1.172,1.171 -3.071,1.171 -4.242,0c-1.172,-1.172 -1.172,-3.071 -0.001,-4.243c1.172,-1.171 3.071,-1.171 4.243,0Zm6.364,6.364c1.171,1.172 1.171,3.071 0,4.243c-1.172,1.171 -3.071,1.171 -4.242,0c-1.172,-1.172 -1.172,-3.071 -0.001,-4.243c1.172,-1.172 3.071,-1.171 4.243,0Zm6.364,6.364c1.171,1.172 1.172,3.071 0,4.243c-1.172,1.171 -3.071,1.171 -4.243,-0.001c-1.171,-1.171 -1.171,-3.071 0,-4.242c1.172,-1.172 3.071,-1.171 4.243,0Z" style="fill:#0c4159;"/><path id="Resize-Plus-Icon1" d="M507.066,313.375c0,1.38 -1.065,2.501 -2.44,2.501c-1.376,0 -2.44,-1.117 -2.439,-2.498l-0.086,-11.125l-17.899,17.837c-1.047,1.05 -2.743,1.052 -3.789,0.002c-1.046,-1.05 -1.046,-2.751 0.001,-3.803l17.825,-17.981l-11.123,-0.048c-1.376,0 -2.49,-1.069 -2.49,-2.448c0.001,-1.38 1.117,-2.449 2.492,-2.449l17.393,-0.008c0.706,0 1.339,0.297 1.793,0.77l0.003,0.003c0.471,0.454 0.767,1.09 0.767,1.8l-0.008,17.447Zm-51.131,34.928l11.154,0.048c1.38,0 2.497,1.065 2.497,2.44c-0.001,1.378 -1.12,2.443 -2.499,2.443l-17.443,0.008c-0.707,0 -1.343,-0.297 -1.797,-0.769c-0.001,-0.001 -0.002,-0.001 -0.002,-0.001c-0.001,0 -0.001,-0.001 -0.002,-0.001c-0.472,-0.452 -0.769,-1.087 -0.769,-1.795l0.008,-17.397c0,-1.377 1.068,-2.494 2.447,-2.494c1.38,0 2.447,1.114 2.446,2.49l0.087,11.094l17.95,-17.786c1.049,-1.047 2.75,-1.05 3.8,-0.002c1.048,1.047 1.048,2.744 -0.002,3.791l-17.875,17.931Z" style="fill:#0c4159;"/><path id="Settings-Icon1" d="M361.562,403.535l-8.442,0c-0.854,3.737 -2.383,7.196 -4.353,10.349l6.016,6.017c1.465,1.463 1.465,3.837 0,5.302l-5.303,5.303c-1.465,1.465 -3.839,1.465 -5.303,0l-5.983,-5.983c-3.156,1.996 -6.624,3.542 -10.383,4.397l0,8.366c0,2.069 -1.678,3.749 -3.749,3.749l-7.5,0c-2.071,0 -3.75,-1.68 -3.75,-3.749l0,-8.366c-3.759,-0.855 -7.226,-2.401 -10.382,-4.397l-5.982,5.983c-1.465,1.465 -3.84,1.465 -5.304,0l-5.303,-5.303c-1.465,-1.465 -1.465,-3.839 0,-5.302l6.016,-6.017c-1.971,-3.153 -3.499,-6.612 -4.353,-10.349l-8.443,0c-2.07,0 -3.749,-1.68 -3.749,-3.749l0,-7.501c0,-2.071 1.679,-3.749 3.749,-3.749l8.443,0c0.854,-3.737 2.382,-7.195 4.353,-10.348l-6.016,-6.017c-1.465,-1.466 -1.465,-3.839 0,-5.304l5.303,-5.304c1.464,-1.465 3.839,-1.465 5.304,0l5.982,5.983c3.156,-1.994 6.623,-3.54 10.382,-4.396l0,-8.364c0,-2.072 1.679,-3.751 3.75,-3.751l7.5,0c2.071,0 3.749,1.679 3.749,3.751l0,8.364c3.759,0.856 7.227,2.402 10.383,4.396l5.983,-5.983c1.464,-1.465 3.838,-1.465 5.303,0l5.303,5.304c1.465,1.465 1.465,3.838 0,5.304l-6.016,6.017c1.97,3.153 3.499,6.611 4.353,10.348l8.442,0c2.071,0 3.75,1.678 3.75,3.749l0,7.501c0,2.069 -1.679,3.749 -3.75,3.749Zm-41.25,-29.999c-12.427,0 -22.5,10.072 -22.5,22.497c0,12.43 10.073,22.502 22.5,22.502c12.426,0 22.5,-10.072 22.5,-22.502c0,-12.425 -10.074,-22.497 -22.5,-22.497Zm0,33.75c-6.213,0 -11.25,-5.039 -11.25,-11.253c0,-6.212 5.037,-11.249 11.25,-11.249c6.213,0 11.25,5.037 11.25,11.249c0,6.214 -5.037,11.253 -11.25,11.253Z" style="fill:#0c4159;"/><path id="Settings-Icon2" d="M438.363,444.319l-5.627,0c-0.57,2.492 -1.589,4.798 -2.903,6.9l4.011,4.011c0.977,0.975 0.977,2.558 0,3.535l-3.535,3.535c-0.977,0.976 -2.559,0.976 -3.536,0l-3.988,-3.989c-2.104,1.331 -4.416,2.361 -6.922,2.932l0,5.577c0,1.379 -1.119,2.499 -2.5,2.499l-4.999,0c-1.381,0 -2.501,-1.12 -2.501,-2.499l0,-5.577c-2.506,-0.571 -4.817,-1.601 -6.92,-2.932l-3.989,3.989c-0.976,0.976 -2.56,0.976 -3.536,0l-3.535,-3.535c-0.977,-0.977 -0.977,-2.56 0,-3.535l4.011,-4.011c-1.314,-2.102 -2.333,-4.408 -2.903,-6.9l-5.628,0c-1.38,0 -2.499,-1.12 -2.499,-2.499l0,-5.001c0,-1.381 1.119,-2.499 2.499,-2.499l5.628,0c0.57,-2.492 1.589,-4.797 2.903,-6.899l-4.011,-4.011c-0.977,-0.977 -0.977,-2.56 0,-3.536l3.535,-3.536c0.976,-0.977 2.56,-0.977 3.536,0l3.989,3.988c2.103,-1.329 4.414,-2.359 6.92,-2.93l0,-5.576c0,-1.381 1.12,-2.501 2.501,-2.501l4.999,0c1.381,0 2.5,1.12 2.5,2.501l0,5.576c2.506,0.571 4.818,1.601 6.922,2.93l3.988,-3.988c0.977,-0.977 2.559,-0.977 3.536,0l3.535,3.536c0.977,0.976 0.977,2.559 0,3.536l-4.011,4.011c1.314,2.102 2.333,4.407 2.903,6.899l5.627,0c1.381,0 2.501,1.118 2.501,2.499l0,5.001c0,1.379 -1.12,2.499 -2.501,2.499Zm-27.5,-19.999c-8.284,0 -14.999,6.715 -14.999,14.998c0,8.286 6.715,15.001 14.999,15.001c8.285,0 15.001,-6.715 15.001,-15.001c0,-8.283 -6.716,-14.998 -15.001,-14.998Zm0,22.5c-4.141,0 -7.5,-3.359 -7.5,-7.502c0,-4.142 3.359,-7.499 7.5,-7.499c4.143,0 7.5,3.357 7.5,7.499c0,4.143 -3.357,7.502 -7.5,7.502Z" style="fill:#0c4159;"/><path id="Forward-Icon" d="M292.559,188.311l-40.87,24.294c-0.971,0.576 -2.079,0.583 -3.056,0.013c-0.976,-0.565 -1.531,-1.539 -1.531,-2.681l0,-20.186l-38.448,22.854c-0.971,0.576 -2.079,0.583 -3.056,0.013c-0.977,-0.565 -1.532,-1.539 -1.532,-2.681l0,-48.585c0,-1.145 0.555,-2.117 1.532,-2.684c0.977,-0.572 2.085,-0.564 3.056,0.014l38.448,22.853l0,-20.183c0,-1.145 0.555,-2.117 1.532,-2.684c0.976,-0.572 2.084,-0.564 3.055,0.014l40.87,24.291c0.962,0.574 1.507,1.538 1.507,2.671c0,1.131 -0.545,2.097 -1.507,2.667Z" style="fill:#0c4159;"/><path id="Play-Icon" d="M344.3,203.795c-0.5,0 -0.927,-0.248 -1.176,-0.685c-0.248,-0.436 -0.246,-0.932 0.007,-1.366l10.643,-18.271c0.251,-0.43 0.674,-0.673 1.169,-0.673c0.496,0 0.919,0.243 1.169,0.673l10.644,18.271c0.252,0.434 0.255,0.93 0.006,1.366c-0.249,0.437 -0.675,0.685 -1.176,0.685l-21.286,0Z" style="fill:#0c4159;"/><path id="Play-Icon1" d="M344.3,163.795c-0.5,0 -0.927,-0.248 -1.176,-0.685c-0.248,-0.436 -0.246,-0.932 0.007,-1.366l10.643,-18.271c0.251,-0.43 0.674,-0.673 1.169,-0.673c0.496,0 0.919,0.243 1.169,0.673l10.644,18.271c0.252,0.434 0.255,0.93 0.006,1.366c-0.249,0.437 -0.675,0.685 -1.176,0.685l-21.286,0Z" style="fill:#0c4159;"/><path id="Play-Icon2" d="M344.3,123.795c-0.5,0 -0.927,-0.248 -1.176,-0.685c-0.248,-0.436 -0.246,-0.932 0.007,-1.366l10.643,-18.271c0.251,-0.43 0.674,-0.673 1.169,-0.673c0.496,0 0.919,0.243 1.169,0.673l10.644,18.271c0.252,0.434 0.255,0.93 0.006,1.366c-0.249,0.437 -0.675,0.685 -1.176,0.685l-21.286,0Z" style="fill:#0c4159;"/><path id="Upload-Icon1" d="M157.177,347.823c-0.004,0 -0.008,-0.001 -0.012,-0.001l0,0.001l-22.986,0c0,0 0,0 0,-0.001l0,-23.146l5.118,5.138c1.695,1.699 4.439,1.699 6.132,0c1.696,-1.702 1.696,-4.458 0,-6.157l-12.08,-12.129c-0.905,-0.908 -2.106,-1.293 -3.291,-1.233c-1.199,-0.083 -2.428,0.309 -3.347,1.233l-12.082,12.129c-1.693,1.699 -1.693,4.455 0,6.157c1.693,1.699 4.439,1.699 6.132,0l5.118,-5.138l0,23.147l-18.714,0l0,-0.001c-14.952,-0.006 -27.071,-12.129 -27.071,-27.081c0,-13.607 10.064,-24.761 23.133,-26.686c4.848,-12.42 16.898,-21.232 31.033,-21.232c17.871,0 32.414,14.072 33.253,31.736c7.436,3.788 12.581,11.431 12.581,20.346c0,12.657 -10.26,22.918 -22.917,22.918Z" style="fill:#0c4159;"/><path id="Plus-Icon" d="M338.737,283.589l-14.782,0l0,14.782c0,1.441 -1.168,2.609 -2.609,2.609c-1.441,0 -2.608,-1.168 -2.608,-2.609l0,-14.782l-14.783,0c-1.441,0 -2.609,-1.168 -2.609,-2.609c0,-1.44 1.168,-2.609 2.609,-2.609l14.783,0l0,-14.782c0,-1.441 1.167,-2.609 2.608,-2.609c1.441,0 2.609,1.168 2.609,2.609l0,14.782l14.782,0c1.441,0 2.609,1.169 2.609,2.609c0,1.441 -1.168,2.609 -2.609,2.609Z" style="fill:#0c4159;"/><path id="Users-Icon" d="M236.632,468.975c2.024,-1.536 3.418,-4.753 3.418,-8.065c0,-4.158 -2.505,-7 -6,-7c-0.838,0 -1.618,0.163 -2.321,0.469c1.463,1.608 2.321,3.894 2.321,6.531c0,2.013 -0.429,3.976 -1.184,5.674l0.031,0.014c1.387,0.649 2.66,1.463 3.735,2.377l0,0Zm1.479,1.466c0.695,-0.557 1.344,-1.247 1.939,-2.031c3.413,1.596 6,4.351 6,6.5c0,1.318 -1.452,2.208 -4,2.5c-0.958,0.222 -2.005,0.349 -3.377,0.419c0.878,-0.725 1.377,-1.694 1.377,-2.919c0,-1.497 -0.726,-3.05 -1.939,-4.469l0,0Zm-6.061,-2.031c-1.645,2.168 -3.707,3.619 -6,3.5c-2.294,0.119 -4.356,-1.332 -6,-3.5c-3.414,1.596 -6,4.351 -6,6.5c0,1.318 1.451,2.208 4,2.5c1.814,0.421 3.951,0.5 8,0.5c4.049,0 6.186,-0.079 8,-0.5c2.548,-0.292 4,-1.182 4,-2.5c0,-2.149 -2.587,-4.904 -6,-6.5Zm-6,1.5c3.322,0 6,-4.409 6,-9c0,-4.158 -2.505,-7 -6,-7c-3.496,0 -6,2.841 -6,7c0,4.591 2.678,9 6,9Z" style="fill:#0c4159;fill-rule:nonzero;"/><path id="Arrow-Right-Icon3" d="M255.179,450.336l12.281,-12.281l-0.004,9.061c0,0.839 0.68,1.519 1.518,1.518c0.838,0 1.518,-0.68 1.519,-1.518l0.004,-12.656c0,-0.431 -0.18,-0.817 -0.467,-1.093c-0.001,-0.001 -0.001,-0.001 -0.002,-0.001c0,0 0,-0.001 -0.001,-0.001c-0.275,-0.287 -0.662,-0.467 -1.092,-0.468l-12.656,0.005c-0.838,0.001 -1.518,0.681 -1.519,1.519c0,0.838 0.68,1.518 1.518,1.517l9.062,-0.003l-12.281,12.281c-0.586,0.586 -0.586,1.535 -0.001,2.12c0.585,0.586 1.535,0.586 2.121,0Z" style="fill:#0c4159;"/><path id="Bubble-Icon7" d="M130.131,387.711c0.806,0 1.593,-0.069 2.354,-0.195c1.876,1.739 4.305,2.887 6.995,3.144c-1.309,-1.243 -2.168,-2.952 -2.318,-4.863c3.006,-1.823 4.969,-4.773 4.969,-8.114c0,-5.537 -5.373,-10.026 -12,-10.026c-6.627,0 -12,4.489 -12,10.026c0,5.538 5.373,10.028 12,10.028Z" style="fill:#8393a7;"/><path id="File-Icon" d="M700.339,535.305l10,10l-10,0l0,-10Zm-2.857,8.572c0,2.367 1.919,4.285 4.286,4.285l8.571,0l0,17.143c0,2.367 -1.919,4.286 -4.286,4.286l-21.428,0c-1.184,0 -2.194,-0.418 -3.031,-1.256c-0.836,-0.836 -1.255,-1.846 -1.255,-3.03l0,-25.714c0,-2.367 1.919,-4.286 4.286,-4.286l12.857,0l0,8.572Z" style="fill:#58b2dc;"/><path id="File-Icon1" d="M763.571,277.74l13.334,13.333l-13.334,0l0,-13.333Zm-3.809,11.429c0,3.155 2.558,5.714 5.714,5.714l11.429,0l0,22.856c0,3.157 -2.559,5.715 -5.714,5.715l-28.572,0c-1.578,0 -2.925,-0.558 -4.041,-1.674c-1.115,-1.115 -1.673,-2.462 -1.673,-4.041l0,-34.285c0,-3.156 2.558,-5.714 5.714,-5.714l17.143,0l0,11.429Z" style="fill:#58b2dc;"/><path id="Arrow-Left-Icon" d="M702.5,499.994l-17.368,0l6.41,6.405c0.593,0.593 0.593,1.554 0,2.146c-0.593,0.593 -1.554,0.593 -2.147,0l-8.953,-8.946c-0.304,-0.304 -0.45,-0.704 -0.442,-1.102c0,-0.001 0,-0.002 0,-0.002c0,-0.001 0,-0.001 0,-0.001c-0.008,-0.399 0.138,-0.8 0.442,-1.104l8.953,-8.946c0.593,-0.592 1.554,-0.592 2.147,0c0.593,0.593 0.593,1.554 0,2.147l-6.41,6.405l17.368,0c0.829,0 1.5,0.671 1.5,1.499c0,0.828 -0.671,1.499 -1.5,1.499Z" style="fill:#8393a7;"/><path id="Arrow-Left-Icon1" d="M742.5,499.994l-17.368,0l6.41,6.405c0.593,0.593 0.593,1.554 0,2.146c-0.593,0.593 -1.554,0.593 -2.147,0l-8.953,-8.946c-0.304,-0.304 -0.45,-0.704 -0.442,-1.102c0,-0.001 0,-0.002 0,-0.002c0,-0.001 0,-0.001 0,-0.001c-0.008,-0.399 0.138,-0.8 0.442,-1.104l8.953,-8.946c0.593,-0.592 1.554,-0.592 2.147,0c0.593,0.593 0.593,1.554 0,2.147l-6.41,6.405l17.368,0c0.829,0 1.5,0.671 1.5,1.499c0,0.828 -0.671,1.499 -1.5,1.499Z" style="fill:#58b2dc;"/><path id="Jump-Up-Icon" d="M333.139,561.214l0,-3.334l-10,0l15,-16.666l15,16.666l-10,0l0,3.334c0,10.713 -10.077,19.483 -20,20c5.172,-4.886 10,-12.052 10,-20Z" style="fill:#8393a7;"/><path id="Jump-Down-Icon" d="M960.939,267.543l0,-3.333l10,0l-15,-16.667l-15,16.667l10,0l0,3.333c0,10.713 10.077,19.483 20,20c-5.172,-4.886 -10,-12.051 -10,-20Z" style="fill:#8393a7;"/><path id="Dots-Vertical-Icon1" d="M824.029,629.769c3.451,0 6.249,2.797 6.249,6.249c0,3.452 -2.798,6.25 -6.249,6.25c-3.452,0 -6.251,-2.798 -6.251,-6.25c0,-3.452 2.799,-6.249 6.251,-6.249Zm18.749,0c3.452,0 6.249,2.797 6.249,6.249c0,3.452 -2.797,6.25 -6.249,6.25c-3.451,0 -6.25,-2.798 -6.25,-6.25c0,-3.452 2.799,-6.249 6.25,-6.249Zm18.75,0c3.452,0 6.25,2.797 6.25,6.249c0,3.452 -2.798,6.25 -6.25,6.25c-3.452,0 -6.25,-2.798 -6.25,-6.25c0,-3.452 2.798,-6.249 6.25,-6.249Z" style="fill:#0c4159;"/><path id="Dots-Vertical-Icon2" d="M802.069,589.82c-1.172,1.171 -3.071,1.171 -4.243,-0.001c-1.171,-1.171 -1.171,-3.07 0,-4.242c1.172,-1.171 3.071,-1.172 4.243,0c1.171,1.171 1.171,3.071 0,4.243Zm-6.364,6.363c-1.172,1.172 -3.071,1.172 -4.243,0c-1.171,-1.171 -1.171,-3.07 0,-4.242c1.172,-1.171 3.071,-1.172 4.243,0c1.172,1.171 1.171,3.071 0,4.242Zm-6.364,6.364c-1.172,1.172 -3.071,1.172 -4.243,0c-1.171,-1.171 -1.171,-3.07 0.001,-4.242c1.171,-1.172 3.071,-1.172 4.242,0c1.172,1.171 1.171,3.071 0,4.242Z" style="fill:#0c4159;"/><path id="Align-Left-Icon" d="M320.002,477.31l-21,0c-0.829,0 -1.5,-0.672 -1.5,-1.5c0,-0.829 0.671,-1.5 1.5,-1.5l21,0c0.828,0 1.5,0.671 1.5,1.5c0,0.828 -0.672,1.5 -1.5,1.5Zm-21,3l18,0c0.828,0 1.5,0.671 1.5,1.5c0,0.828 -0.672,1.5 -1.5,1.5l-18,0c-0.829,0 -1.5,-0.672 -1.5,-1.5c0,-0.829 0.671,-1.5 1.5,-1.5Zm0,6l21,0c0.828,0 1.5,0.671 1.5,1.5c0,0.828 -0.672,1.5 -1.5,1.5l-21,0c-0.829,0 -1.5,-0.672 -1.5,-1.5c0,-0.829 0.671,-1.5 1.5,-1.5Zm0,6l15,0c0.828,0 1.5,0.671 1.5,1.5c0,0.828 -0.672,1.5 -1.5,1.5l-15,0c-0.829,0 -1.5,-0.672 -1.5,-1.5c0,-0.829 0.671,-1.5 1.5,-1.5Z" style="fill:#0c4159;"/><path id="Align-Right-Icon" d="M360.207,478.493l-21,0c-0.828,0 -1.5,-0.672 -1.5,-1.5c0,-0.829 0.672,-1.501 1.5,-1.501l21,0c0.829,0 1.5,0.672 1.5,1.501c0,0.828 -0.671,1.5 -1.5,1.5Zm0,-6.001l-18,0c-0.828,0 -1.5,-0.671 -1.5,-1.5c0,-0.828 0.672,-1.499 1.5,-1.499l18,0c0.829,0 1.5,0.671 1.5,1.499c0,0.829 -0.671,1.5 -1.5,1.5Zm0,-6l-21,0c-0.828,0 -1.5,-0.671 -1.5,-1.499c0,-0.829 0.672,-1.501 1.5,-1.501l21,0c0.829,0 1.5,0.672 1.5,1.501c0,0.828 -0.671,1.499 -1.5,1.499Zm-15,15.001l15,0c0.829,0 1.5,0.671 1.5,1.499c0,0.829 -0.671,1.5 -1.5,1.5l-15,0c-0.828,0 -1.5,-0.671 -1.5,-1.5c0,-0.828 0.672,-1.499 1.5,-1.499Z" style="fill:#0c4159;"/><path id="Resize-Plus-Icon2" d="M165.738,52.512c0,1.84 1.42,3.334 3.254,3.334c1.834,0 3.253,-1.489 3.252,-3.331l0.115,-14.833l23.865,23.783c1.396,1.399 3.657,1.402 5.052,0.002c1.395,-1.4 1.394,-3.668 -0.002,-5.07l-23.766,-23.974l14.83,-0.065c1.835,0 3.32,-1.425 3.32,-3.263c-0.001,-1.841 -1.488,-3.266 -3.322,-3.266l-23.191,-0.011c-0.941,0 -1.786,0.396 -2.391,1.027l-0.004,0.004c-0.628,0.606 -1.023,1.453 -1.023,2.4l0.011,23.263Zm68.175,46.57l-14.872,0.064c-1.84,0 -3.33,1.42 -3.329,3.254c0,1.837 1.492,3.256 3.331,3.256l23.258,0.011c0.943,0 1.791,-0.395 2.397,-1.025c0,-0.001 0.001,-0.001 0.001,-0.001c0.001,0 0.002,-0.001 0.003,-0.001c0.629,-0.603 1.026,-1.449 1.025,-2.393l-0.01,-23.197c0,-1.836 -1.424,-3.325 -3.263,-3.325c-1.84,0 -3.262,1.485 -3.261,3.32l-0.115,14.792l-23.934,-23.715c-1.399,-1.396 -3.668,-1.399 -5.067,-0.003c-1.398,1.397 -1.397,3.66 0.002,5.056l23.834,23.907Z" style="fill:#0c4159;"/><path id="Pin-Icon1" d="M168.37,599.234c-4,13.461 -16.662,26.216 -16.662,26.216c0,0 -12.616,-12.722 -16.639,-26.153c-0.679,-1.891 -1.069,-4.023 -1.069,-6.149c0,-9.832 7.929,-17.698 17.708,-17.698c9.781,0 17.709,7.866 17.709,17.698c0,2.102 -0.381,4.214 -1.047,6.086Zm-16.662,-13.368c-4.026,0 -7.291,3.265 -7.291,7.292c0,4.027 3.265,7.291 7.291,7.291c4.028,0 7.292,-3.264 7.292,-7.291c0,-4.027 -3.264,-7.292 -7.292,-7.292Z" style="fill:#58b2dc;"/><path id="Settings-Icon3" d="M766.972,393.077l-4.689,0c-0.475,2.076 -1.325,3.998 -2.419,5.749l3.342,3.343c0.814,0.813 0.814,2.132 0,2.946l-2.946,2.946c-0.813,0.813 -2.132,0.813 -2.946,0l-3.324,-3.324c-1.753,1.109 -3.679,1.968 -5.768,2.443l0,4.647c0,1.15 -0.932,2.083 -2.083,2.083l-4.166,0c-1.151,0 -2.084,-0.933 -2.084,-2.083l0,-4.647c-2.088,-0.475 -4.014,-1.334 -5.767,-2.443l-3.324,3.324c-0.814,0.813 -2.133,0.813 -2.947,0l-2.946,-2.946c-0.814,-0.814 -0.814,-2.133 0,-2.946l3.343,-3.343c-1.095,-1.751 -1.945,-3.673 -2.419,-5.749l-4.69,0c-1.15,0 -2.083,-0.933 -2.083,-2.083l0,-4.167c0,-1.151 0.933,-2.083 2.083,-2.083l4.69,0c0.474,-2.076 1.324,-3.997 2.419,-5.749l-3.343,-3.343c-0.814,-0.814 -0.814,-2.133 0,-2.946l2.946,-2.947c0.814,-0.814 2.133,-0.814 2.947,0l3.324,3.324c1.753,-1.108 3.679,-1.967 5.767,-2.443l0,-4.646c0,-1.151 0.933,-2.084 2.084,-2.084l4.166,0c1.151,0 2.083,0.933 2.083,2.084l0,4.646c2.089,0.476 4.015,1.335 5.768,2.443l3.324,-3.324c0.814,-0.814 2.133,-0.814 2.946,0l2.946,2.947c0.814,0.813 0.814,2.132 0,2.946l-3.342,3.343c1.094,1.752 1.944,3.673 2.419,5.749l4.689,0c1.151,0 2.084,0.932 2.084,2.083l0,4.167c0,1.15 -0.933,2.083 -2.084,2.083Zm-22.916,-16.666c-6.904,0 -12.5,5.595 -12.5,12.498c0,6.905 5.596,12.501 12.5,12.501c6.903,0 12.5,-5.596 12.5,-12.501c0,-6.903 -5.597,-12.498 -12.5,-12.498Zm0,18.75c-3.452,0 -6.25,-2.8 -6.25,-6.252c0,-3.451 2.798,-6.249 6.25,-6.249c3.452,0 6.25,2.798 6.25,6.249c0,3.452 -2.798,6.252 -6.25,6.252Z" style="fill:#58b2dc;"/><path id="Dots-Horizontal-Icon" d="M90.854,665.008c-4.142,0 -7.5,-3.358 -7.5,-7.5c0,-4.141 3.358,-7.499 7.5,-7.499c4.142,0 7.5,3.358 7.5,7.499c0,4.142 -3.358,7.5 -7.5,7.5Zm-22.501,0c-4.141,0 -7.499,-3.358 -7.499,-7.5c0,-4.141 3.358,-7.499 7.499,-7.499c4.143,0 7.501,3.358 7.501,7.499c0,4.142 -3.358,7.5 -7.501,7.5Zm-22.499,0c-4.142,0 -7.5,-3.358 -7.5,-7.5c0,-4.141 3.358,-7.499 7.5,-7.499c4.142,0 7.5,3.358 7.5,7.499c0,4.142 -3.358,7.5 -7.5,7.5Z" style="fill:#8393a7;"/><path id="Bubble-Icon8" d="M578.914,154.964c-2.016,0 -3.982,-0.172 -5.886,-0.488c-4.69,4.348 -10.762,7.22 -17.488,7.862c3.274,-3.107 5.421,-7.381 5.796,-12.158c-7.515,-4.557 -12.423,-11.932 -12.423,-20.285c0,-13.844 13.432,-25.066 30.001,-25.066c16.568,0 29.999,11.222 29.999,25.066c0,13.845 -13.431,25.069 -29.999,25.069Z" style="fill:#8393a7;"/><path id="Video-Icon" d="M589.273,141.276l-21,0c-0.829,0 -1.5,-0.671 -1.5,-1.499l0,-21.001c0,-0.828 0.671,-1.499 1.5,-1.499l21,0c0.828,0 1.5,0.671 1.5,1.499l0,21.001c0,0.828 -0.672,1.499 -1.5,1.499Zm-11.5,-2l2,0l0,-1.999l-2,0l0,1.999Zm5.709,-9.534c0.184,-0.104 0.289,-0.279 0.289,-0.486c0,-0.205 -0.105,-0.381 -0.289,-0.485l-7.83,-4.417c-0.186,-0.105 -0.399,-0.106 -0.586,-0.003c-0.187,0.103 -0.293,0.28 -0.293,0.489l0,8.834c0,0.208 0.106,0.385 0.293,0.489c0.187,0.102 0.4,0.101 0.586,-0.004l7.83,-4.417Zm-9.709,9.534l2,0l0,-1.999l-2,0l0,1.999Zm-2,-19.999l-2,0l0,1.999l2,0l0,-1.999Zm0,18l-2,0l0,1.999l2,0l0,-1.999Zm4,-18l-2,0l0,1.999l2,0l0,-1.999Zm4,0l-2,0l0,1.999l2,0l0,-1.999Zm4,0l-2,0l0,1.999l2,0l0,-1.999Zm0,18l-2,0l0,1.999l2,0l0,-1.999Zm4,-18l-2,0l0,1.999l2,0l0,-1.999Zm0,18l-2,0l0,1.999l2,0l0,-1.999Z" style="fill:#0c4159;"/><path id="Jump-Right-Icon" d="M972,102l2,0l0,6l10,-9l-10,-9l0,6l-2,0c-6.428,0 -11.69,6.046 -12,12c2.931,-3.103 7.231,-6 12,-6Z" style="fill:#58b2dc;"/><path id="Jump-Right-Icon1" d="M1002,72l2,0l0,6l10,-9l-10,-9l0,6l-2,0c-6.428,0 -11.69,6.046 -12,12c2.931,-3.103 7.231,-6 12,-6Z" style="fill:#58b2dc;"/><path id="Jump-Right-Icon2" d="M1032,42l2,0l0,6l10,-9l-10,-9l0,6l-2,0c-6.428,0 -11.69,6.046 -12,12c2.931,-3.103 7.231,-6 12,-6Z" style="fill:#8393a7;"/><path id="Cart-Checked-Icon" d="M661.451,667.646c-5.524,0 -10.003,-4.478 -10.003,-10.003c0,-5.524 4.479,-10.003 10.003,-10.003c5.525,0 10.003,4.479 10.003,10.003c0,5.525 -4.478,10.003 -10.003,10.003Zm5.261,-13.836c-0.615,-0.605 -1.614,-0.605 -2.23,0l-4.46,4.384l-1.602,-1.526c-0.615,-0.605 -1.614,-0.605 -2.23,0c-0.615,0.606 -0.615,1.587 0,2.193l2.717,2.622c0.616,0.605 1.615,0.605 2.23,0l5.575,-5.481c0.616,-0.605 0.616,-1.587 0,-2.192Zm-18.122,-3.312c-3.156,0 -5.716,2.559 -5.716,5.716l0,4.272l6.042,0c1.296,5.733 6.411,10.018 12.535,10.018c0.972,0 1.914,-0.116 2.824,-0.32l1.411,9.053c0.125,0.692 -0.035,1.334 -0.469,1.876c-0.433,0.541 -1.012,0.823 -1.691,0.823l-29.87,0c-0.679,0 -1.258,-0.282 -1.692,-0.823c-0.433,-0.542 -0.594,-1.184 -0.468,-1.876l2.633,-16.892c0.198,-1.091 1.09,-1.859 2.161,-1.859l3.727,0l0,-4.272c0,-4.735 3.838,-8.574 8.573,-8.574c1.359,0 2.627,0.345 3.769,0.908c-0.695,0.694 -1.299,1.476 -1.821,2.314c-0.61,-0.223 -1.26,-0.364 -1.948,-0.364Zm-5.716,10.003l-2.858,0l0,3.254c-0.85,0.496 -1.429,1.407 -1.429,2.462c0,1.579 1.28,2.858 2.858,2.858c1.579,0 2.858,-1.279 2.858,-2.858c0,-1.055 -0.578,-1.966 -1.429,-2.462l0,-3.254Z" style="fill:#58b2dc;"/><path id="Previous-Icon" d="M826.177,439.441c-0.208,-0.357 -0.205,-0.761 0.005,-1.116l8.332,-14.032l2.995,0l8.331,14.032c0.211,0.355 0.214,0.759 0.006,1.116c-0.207,0.356 -0.562,0.559 -0.979,0.559l-17.713,0c-0.416,0 -0.77,-0.203 -0.977,-0.559Zm-0.171,-17.299c0,-1.183 0.959,-2.142 2.142,-2.142l15.706,0c1.184,0 2.142,0.959 2.142,2.142c0,1.183 -0.958,2.142 -2.142,2.142l-15.706,0c-1.183,0 -2.142,-0.959 -2.142,-2.142Z" style="fill:#8393a7;"/><path id="Previous-Icon1" d="M826.177,399.441c-0.208,-0.357 -0.205,-0.761 0.005,-1.116l8.332,-14.032l2.995,0l8.331,14.032c0.211,0.355 0.214,0.759 0.006,1.116c-0.207,0.356 -0.562,0.559 -0.979,0.559l-17.713,0c-0.416,0 -0.77,-0.203 -0.977,-0.559Zm-0.171,-17.299c0,-1.183 0.959,-2.142 2.142,-2.142l15.706,0c1.184,0 2.142,0.959 2.142,2.142c0,1.183 -0.958,2.142 -2.142,2.142l-15.706,0c-1.183,0 -2.142,-0.959 -2.142,-2.142Z" style="fill:#8393a7;"/><path id="Previous-Icon2" d="M826.177,359.441c-0.208,-0.357 -0.205,-0.761 0.005,-1.116l8.332,-14.032l2.995,0l8.331,14.032c0.211,0.355 0.214,0.759 0.006,1.116c-0.207,0.356 -0.562,0.559 -0.979,0.559l-17.713,0c-0.416,0 -0.77,-0.203 -0.977,-0.559Zm-0.171,-17.299c0,-1.183 0.959,-2.142 2.142,-2.142l15.706,0c1.184,0 2.142,0.959 2.142,2.142c0,1.183 -0.958,2.142 -2.142,2.142l-15.706,0c-1.183,0 -2.142,-0.959 -2.142,-2.142Z" style="fill:#58b2dc;"/><path id="Plus-Icon1" d="M502.968,104.428l-14.782,0.056l0.056,14.782c0.005,1.441 -1.159,2.613 -2.599,2.619c-1.441,0.005 -2.613,-1.158 -2.619,-2.599l-0.055,-14.782l-14.783,0.055c-1.441,0.006 -2.613,-1.158 -2.619,-2.599c-0.005,-1.44 1.159,-2.613 2.599,-2.618l14.783,-0.056l-0.056,-14.782c-0.005,-1.441 1.158,-2.613 2.599,-2.619c1.441,-0.005 2.613,1.158 2.619,2.6l0.055,14.781l14.783,-0.055c1.44,-0.006 2.613,1.158 2.618,2.599c0.006,1.44 -1.158,2.613 -2.599,2.618Z" style="fill:#8393a7;"/><path id="Plus-Icon2" d="M527.998,80.65l-8.5,0l0,8.5c0,0.828 -0.671,1.5 -1.5,1.5c-0.828,0 -1.5,-0.672 -1.5,-1.5l0,-8.5l-8.5,0c-0.828,0 -1.5,-0.672 -1.5,-1.5c0,-0.829 0.672,-1.5 1.5,-1.5l8.5,0l0,-8.5c0,-0.829 0.672,-1.5 1.5,-1.5c0.829,0 1.5,0.671 1.5,1.5l0,8.5l8.5,0c0.829,0 1.5,0.671 1.5,1.5c0,0.828 -0.671,1.5 -1.5,1.5Z" style="fill:#8393a7;"/><path id="Pin-Icon2" d="M973.015,377.064c-7.907,26.607 -32.931,51.816 -32.931,51.816c0,0 -24.935,-25.144 -32.887,-51.691c-1.342,-3.736 -2.113,-7.951 -2.113,-12.153c0,-19.431 15.67,-34.98 35,-34.98c19.33,0 35,15.549 35,34.98c0,4.156 -0.753,8.33 -2.069,12.028Zm-32.931,-26.421c-7.959,0 -14.411,6.453 -14.411,14.413c0,7.958 6.452,14.411 14.411,14.411c7.96,0 14.412,-6.453 14.412,-14.411c0,-7.96 -6.452,-14.413 -14.412,-14.413Z" style="fill:#8393a7;"/><path id="Arrow-Up-Icon" d="M506.239,40.45l-7.904,-7.911l-7.905,7.911c-0.592,0.593 -1.553,0.593 -2.146,0c-0.592,-0.593 -0.592,-1.554 0,-2.148l8.946,-8.952c0.305,-0.304 0.706,-0.45 1.105,-0.442c0.399,-0.008 0.8,0.138 1.105,0.442l8.945,8.952c0.593,0.594 0.593,1.555 0,2.148c-0.592,0.593 -1.553,0.593 -2.146,0Z" style="fill:#58b2dc;"/><path id="Arrow-Up-Icon1" d="M505.938,55.765l-7.905,-7.911l-7.904,7.911c-0.593,0.593 -1.554,0.593 -2.146,0c-0.593,-0.593 -0.593,-1.555 0,-2.148l8.946,-8.953c0.304,-0.304 0.705,-0.449 1.104,-0.441c0.399,-0.008 0.8,0.137 1.105,0.441l8.946,8.953c0.592,0.593 0.592,1.555 0,2.148c-0.593,0.593 -1.554,0.593 -2.146,0Z" style="fill:#58b2dc;"/><path id="Jump-Right-Icon3" d="M1018.2,651.433l2,0l0,6l10,-9l-10,-9l0,6l-2,0c-6.428,0 -11.69,6.046 -12,12c2.931,-3.103 7.23,-6 12,-6Z" style="fill:#8393a7;"/><path id="Jump-Right-Icon4" d="M1028.35,616.48l5,0l0,-15l25,22.5l-25,22.5l0,-15l-5,0c-16.069,0 -29.224,-15.115 -30,-30c7.328,7.758 18.077,15 30,15Z" style="fill:#58b2dc;"/><path id="Jump-Right-Icon5" d="M1097.35,636.48l5.833,0l0,17.5l29.167,-26.25l-29.167,-26.25l0,17.5l-5.833,0c-18.748,0 -34.095,17.635 -35,35c8.55,-9.051 21.089,-17.5 35,-17.5Z" style="fill:#58b2dc;"/><path id="Dots-Vertical-Icon3" d="M779.123,420.175c0,1.656 -1.343,2.999 -3,2.999c-1.657,0 -3,-1.343 -3,-2.999c0,-1.657 1.343,-3.001 3,-3.001c1.657,0 3,1.344 3,3.001Zm0,9c0,1.656 -1.343,2.999 -3,2.999c-1.657,0 -3,-1.343 -3,-2.999c0,-1.657 1.343,-3.001 3,-3.001c1.657,0 3,1.344 3,3.001Zm0,8.999c0,1.657 -1.343,3 -3,3c-1.657,0 -3,-1.343 -3,-3c0,-1.657 1.343,-3 3,-3c1.657,0 3,1.343 3,3Z" style="fill:#58b2dc;"/><path id="Clip-Icon" d="M1119.78,344.487l-28.259,27.968c-1.301,1.287 -3.41,1.287 -4.71,0c-1.301,-1.287 -1.301,-3.374 0,-4.661l16.733,-16.561l11.527,-11.409c6.503,-6.435 6.503,-16.87 0,-23.307c-6.504,-6.435 -17.047,-6.435 -23.55,0l-11.527,11.409l-14.431,14.283l-9.367,9.269c-3.902,3.862 -3.902,10.124 0,13.986c3.902,3.86 10.228,3.86 14.13,0l9.366,-9.271l4.764,-4.715l9.852,-9.751l6.633,-6.563c1.3,-1.287 1.3,-3.374 0,-4.661c-1.301,-1.288 -3.41,-1.288 -4.71,0l-6.633,6.564l-16.917,16.743c-1.301,1.287 -3.41,1.287 -4.71,0c-1.301,-1.288 -1.301,-3.375 0,-4.662l23.55,-23.307c3.901,-3.862 10.228,-3.862 14.129,0c3.902,3.862 3.902,10.122 0,13.983l-30.614,30.3c-6.503,6.437 -17.047,6.437 -23.55,0c-6.503,-6.436 -6.503,-16.871 0,-23.307l35.325,-34.96c9.104,-9.011 23.865,-9.011 32.969,0c9.105,9.01 9.105,23.62 0,32.63Z" style="fill:#0c4159;"/><path id="Exit-Icon" d="M1090.81,585.004l27.083,0c1.726,0 3.125,-1.399 3.125,-3.126l0,-1.042l0,-2.082l0,-1.042c0,-1.728 -1.399,-3.126 -3.125,-3.126c-1.726,0 -3.125,1.398 -3.125,3.126l0,1.042l-13.541,0l-7.292,0l0,-37.501l20.833,0l0,1.042c0,1.726 1.399,3.125 3.125,3.125c1.726,0 3.125,-1.399 3.125,-3.125l0,-1.042l0,-2.083l0,-1.042c0,-1.726 -1.399,-3.124 -3.125,-3.124l-27.083,0c-1.726,0 -3.125,1.398 -3.125,3.124l0,43.75c0,1.727 1.399,3.126 3.125,3.126Zm39.747,-27.111l-17.872,0c-1.151,0 -2.084,0.932 -2.084,2.083c0,1.151 0.933,2.085 2.084,2.085l17.872,0l-6.82,6.822c-0.823,0.824 -0.823,2.16 0,2.984c0.824,0.824 2.16,0.824 2.983,0l10.351,-10.356c0.423,-0.422 0.625,-0.978 0.614,-1.533c0,-0.001 0,-0.001 0,-0.002l0,-0.002c0.011,-0.554 -0.191,-1.112 -0.614,-1.533l-10.351,-10.355c-0.823,-0.825 -2.159,-0.825 -2.983,0c-0.823,0.823 -0.823,2.16 0,2.982l6.82,6.825Z" style="fill:#8393a7;"/><path id="Undo-Icon" d="M1072.25,102.735l32.423,0l-12.682,-12.626c6.094,-6.089 14.484,-9.873 23.784,-9.873c18.639,0 33.75,15.11 33.75,33.75c0,18.639 -15.111,33.749 -33.75,33.749c-13.468,0 -25.058,-7.908 -30.473,-19.316c0,0 -0.946,-3.183 -5.152,-3.183c-3.106,0 -5.625,2.518 -5.625,5.624c0,1.072 0.38,2.017 0.9,2.869c7.322,14.932 22.598,25.257 40.35,25.257c24.853,0 45,-20.147 45,-45c0,-24.853 -20.147,-45.001 -45,-45.001c-12.417,0 -23.615,5.063 -31.742,13.201l-13.258,-13.201l0,33.75l1.475,0Z" style="fill:#58b2dc;"/><path id="Resize-Plus-Icon3" d="M61.744,573.916l4.32,-4.301l-5.013,-5.014c-0.74,-0.739 -0.74,-1.938 0,-2.678c0.739,-0.739 1.938,-0.739 2.678,0l5.019,5.02l4.296,-4.277l0,11.25l-11.3,0Zm1.985,-18.008c-0.74,0.74 -1.939,0.74 -2.678,0c-0.74,-0.739 -0.74,-1.938 0,-2.677l5.013,-5.014l-4.32,-4.302l11.3,0l0,11.25l-4.296,-4.276l-5.019,5.019Zm-13.726,13.719l4.308,4.289l-11.267,0l0,-11.218l4.283,4.265l5.002,-5.003c0.737,-0.736 1.933,-0.736 2.67,0c0.737,0.739 0.737,1.934 0,2.67l-4.996,4.997Zm2.326,-13.756l-5.002,-5.002l-4.283,4.265l0,-11.219l11.267,0l-4.308,4.29l4.996,4.996c0.737,0.737 0.737,1.932 0,2.67c-0.737,0.737 -1.933,0.737 -2.67,0Z" style="fill:#8393a7;"/><path id="Arrow-Up-Icon2" d="M735.271,49.859l-11.297,-11.307l-11.298,11.307c-0.847,0.847 -2.22,0.847 -3.067,0c-0.847,-0.848 -0.847,-2.222 0,-3.071l12.786,-12.795c0.435,-0.435 1.009,-0.643 1.579,-0.631c0.57,-0.012 1.143,0.196 1.579,0.631l12.785,12.795c0.847,0.849 0.847,2.223 0,3.071c-0.847,0.847 -2.22,0.847 -3.067,0Z" style="fill:#8393a7;"/><path id="Backward-Icon1" d="M281.265,290.378c-0.325,0.19 -0.695,0.187 -1.019,-0.005l-12.815,-7.609l0,6.721c0,0.38 -0.186,0.704 -0.511,0.893c-0.326,0.19 -0.695,0.187 -1.019,-0.005l-13.623,-8.088c-0.32,-0.19 -0.502,-0.512 -0.502,-0.888c0,-0.378 0.182,-0.699 0.502,-0.889l13.623,-8.089c0.324,-0.192 0.693,-0.195 1.019,-0.005c0.325,0.189 0.511,0.513 0.511,0.894l0,6.72l12.815,-7.609c0.324,-0.192 0.694,-0.195 1.019,-0.005c0.326,0.189 0.511,0.513 0.511,0.894l0,16.177c0,0.38 -0.185,0.704 -0.511,0.893Z" style="fill:#0c4159;"/><path id="Bubble-Icon9" d="M12.799,206.458c7.39,0 14.599,-0.628 21.581,-1.786c17.197,15.941 39.46,26.471 64.12,28.827c-12.002,-11.395 -19.874,-27.064 -21.25,-44.583c27.556,-16.706 45.549,-43.749 45.549,-74.378c0,-50.758 -49.249,-91.908 -110,-91.908c-60.752,0 -110,41.15 -110,91.908c0,50.768 49.248,91.92 110,91.92Z" style="fill:#8393a7;"/><path id="Star-Icon9" d="M6.816,68.222c0.395,-1.118 1.403,-1.833 2.597,-1.833c1.192,0 2.2,0.715 2.595,1.833l10.537,29.949c0.388,1.099 1.358,1.804 2.526,1.832l31.655,0.813c1.189,0.03 2.175,0.762 2.543,1.89c0.37,1.124 0.009,2.295 -0.932,3.02l-25.171,19.372c-0.918,0.707 -1.284,1.836 -0.957,2.944l9.018,30.509c0.336,1.136 -0.063,2.3 -1.028,2.994c-0.966,0.695 -2.199,0.707 -3.179,0.03l-26.04,-17.999c-0.964,-0.665 -2.172,-0.665 -3.136,0l-26.04,17.999c-0.979,0.677 -2.213,0.665 -3.178,-0.03c-0.966,-0.694 -1.365,-1.858 -1.029,-2.994l9.018,-30.509c0.328,-1.108 -0.039,-2.237 -0.958,-2.944l-25.17,-19.372c-0.94,-0.725 -1.301,-1.896 -0.932,-3.02c0.369,-1.128 1.355,-1.86 2.543,-1.89l31.656,-0.813c1.168,-0.028 2.138,-0.733 2.525,-1.832l10.537,-29.949Z" style="fill:#0c4159;"/></g></svg>