<?xml version="1.0" encoding="UTF-8" standalone="no"?><!DOCTYPE svg PUBLIC "-//W3C//DTD SVG 1.1//EN" "http://www.w3.org/Graphics/SVG/1.1/DTD/svg11.dtd"><svg width="100%" height="100%" viewBox="0 0 1773 381" version="1.1" xmlns="http://www.w3.org/2000/svg" xmlns:xlink="http://www.w3.org/1999/xlink" xml:space="preserve" style="fill-rule:evenodd;clip-rule:evenodd;stroke-linejoin:round;stroke-miterlimit:1.41421;"><rect id="バナー" x="0.398" y="0" width="1772.38" height="380.842" style="fill:none;"/><g id="バッタ"><path id="胴" d="M262.658,104.047c39.322,-14.611 44.683,35.451 30.305,57.444c-43.091,65.913 -228.347,84.482 -228.347,84.482c0,0 107.631,-108.334 198.042,-141.926Zm-40.259,95.724c-6.504,-27.458 -22.383,-38.692 -66.09,10.957c45.703,-67.518 71.111,-47.548 66.09,-10.957Zm47.384,-81.778c3.594,-1.911 8.063,-0.544 9.974,3.05c1.911,3.593 0.545,8.063 -3.049,9.974c-3.594,1.911 -8.063,0.544 -9.974,-3.05c-1.911,-3.594 -0.545,-8.063 3.049,-9.974Z" style="fill:#58b2dc;"/><path id="翅2" d="M191.627,129.623c0,0 -108.935,-65.635 -181.318,-43.108c26.304,51.064 56.875,69.123 97.374,75.493c41.299,6.496 83.944,-32.385 83.944,-32.385Z" style="fill:#58b2dc;"/><path id="翅1" d="M209.373,120.892c0,0 -111.874,-146.994 -185.872,-103.295c34.791,44.71 185.872,103.295 185.872,103.295Z" style="fill:#58b2dc;"/><path id="足2" d="M54.879,369.964c40.92,17.741 45.504,-49.386 38.403,-57.445c2.223,19.079 -2.499,51.628 -38.403,57.445Z" style="fill:#58b2dc;"/><path id="足1" d="M99.546,306.291c0,0 35.161,-2.973 77.761,-41.346c16.304,-14.686 60.186,-63.766 30.735,-85.797c-21.678,-16.216 -108.496,127.143 -108.496,127.143Z" style="fill:#58b2dc;"/><path id="触覚" d="M298.804,52.277c0.967,-3.059 -33.289,-2.163 -17.548,42.617c1.753,-19.71 6.237,-26.079 17.548,-42.617Z" style="fill:#58b2dc;"/></g><g id="無限飛行"><path d="M462.37,321.018l23.472,-45.243l32.316,0l-23.812,45.243l-31.976,0Zm81.642,-48.985l28.914,0l3.742,48.645l-28.574,0l-4.082,-48.645Zm66.334,0l30.275,0l16.328,48.645l-29.935,0l-16.668,-48.645Zm95.929,3.742l25.173,45.243l-32.317,0l-25.853,-45.243l32.997,0Zm-209.207,-172.128l-7.824,19.39l-28.575,0l27.214,-67.355l28.915,0l-8.845,22.452l194.58,0l0,25.513l-18.029,0l0,49.325l38.779,0l0,25.513l-38.779,0l0,48.985l31.636,0l0,25.853l-246.286,0l0,-25.853l34.357,0l0,-48.985l-41.501,0l0,-25.513l41.501,0l0,-49.325l-7.143,0Zm32.996,0l0,49.325l25.513,0l0,-49.325l-25.513,0Zm51.367,49.325l25.853,0l0,-49.325l-25.853,0l0,49.325Zm25.853,25.513l-25.853,0l0,48.985l25.853,0l0,-48.985Zm-77.22,0l0,48.985l25.513,0l0,-48.985l-25.513,0Zm128.586,48.985l0,-48.985l-25.853,0l0,48.985l25.853,0Zm0,-74.498l0,-49.325l-25.853,0l0,49.325l25.853,0Z" style="fill:#58b2dc;fill-rule:nonzero;"/><path d="M1084.89,224.408l-44.903,36.059l37.419,63.272l-31.977,0l-72.117,-123.823l-20.07,0l0,89.806l32.317,-11.226l0,27.894l-58.51,20.071l0,-264.996l130.627,0l0,138.451l-53.068,0l21.431,37.079l15.648,-12.587l43.203,0Zm-53.748,-136.75l-77.9,0l0,30.276l77.9,0l0,-30.276Zm-77.9,56.129l0,29.936l77.9,0l0,-29.936l-77.9,0Zm-140.152,-84.703l90.147,0l-16.329,75.859l14.628,52.727l0,64.633l-42.862,0l0,-25.513l17.008,0l0,-35.378l-15.648,-55.789l10.886,-51.026l-32.317,0l0,237.441l-25.513,0l0,-262.954Z" style="fill:#58b2dc;fill-rule:nonzero;"/><path d="M1349.88,196.514l24.493,95.929l46.604,0l0,26.194l-66.674,0l-30.616,-118.721l-40.141,0l0,119.401l-26.193,0l0,-119.401l-32.317,0l-27.554,114.639l-26.873,0l27.894,-114.639l-38.44,0l0,-25.853l40.481,0l0,-31.637l-38.1,13.948l0,-27.554l78.921,-27.895l0,27.214l-14.628,5.103l0,40.821l30.616,0l0,-77.22l26.193,0l0,77.22l66.334,0l0,22.451Zm30.616,-29.935l40.481,0l0,26.193l-59.191,0l-36.738,-102.732l0,-4.423l-156.14,0l0,-26.533l182.673,0l0,26.193l28.915,81.302Zm20.751,30.616l0,27.894l-27.214,10.545l0,-27.554l27.214,-10.885Zm-27.214,75.858l0,-27.894l27.214,12.587l0,27.894l-27.214,-12.587Zm28.234,-219.072l0,27.554l-23.472,8.845l0,-27.894l23.472,-8.505Zm0,61.912l0,27.894l-23.472,-9.185l0,-27.894l23.472,9.185Z" style="fill:#58b2dc;fill-rule:nonzero;"/><path d="M1754.69,64.527l0,26.873l-138.111,0l0,-26.873l138.111,0Zm9.184,75.178l0,27.554l-58.169,0l0,152.398l-26.874,0l0,-152.398l-77.56,0l0,-27.554l162.603,0Zm-211.248,-11.566l32.657,0l-23.812,35.038l0,156.48l-27.214,0l0,-116.679l-10.546,15.307l-32.656,0l61.571,-90.146Zm22.112,-69.395l-52.728,77.559l-32.316,0l52.047,-77.559l32.997,0Z" style="fill:#58b2dc;fill-rule:nonzero;"/></g></svg>