<?xml version="1.0" encoding="UTF-8" standalone="no"?><!DOCTYPE svg PUBLIC "-//W3C//DTD SVG 1.1//EN" "http://www.w3.org/Graphics/SVG/1.1/DTD/svg11.dtd"><svg width="100%" height="100%" viewBox="0 0 320 240" version="1.1" xmlns="http://www.w3.org/2000/svg" xmlns:xlink="http://www.w3.org/1999/xlink" xml:space="preserve" style="fill-rule:evenodd;clip-rule:evenodd;stroke-linejoin:round;stroke-miterlimit:1.41421;"><path d="M76.795,220l-6.795,-6.795l48.36,-48.285l6.795,6.795l-48.36,48.285Zm45.315,-19.237l-6.803,-6.803l27.27,-27.48l6.795,6.803l-27.262,27.48Zm-37.343,-13.928l-6.802,-6.795l39.067,-38.91l6.795,6.803l-39.06,38.902Zm113.49,-94.995c-2.055,-2.055 -2.055,-5.385 0,-7.432c2.033,-2.048 5.37,-2.048 7.425,0c2.04,2.047 2.033,5.377 0,7.432c-2.055,2.04 -5.385,2.04 -7.425,0Zm14.31,-14.332c-5.85,-5.85 -15.352,-5.85 -21.21,0c-5.865,5.865 -5.865,15.367 0,21.225c5.858,5.857 15.36,5.857 21.218,0c5.85,-5.858 5.85,-15.36 -0.008,-21.225Zm-37.117,37.132c-2.933,-2.932 -2.933,-7.68 0,-10.605c2.925,-2.932 7.672,-2.932 10.605,0c2.925,2.933 2.925,7.68 0,10.613c-2.933,2.925 -7.68,2.925 -10.605,-0.008Zm-58.035,-4.972c-4.343,-2.1 -8.685,-3.285 -12.99,-3.308c6.022,-5.107 13.08,-8.647 19.695,-10.087c2.355,-4.14 5.002,-8.228 7.792,-12.248c-15.292,0.413 -27.81,6.503 -36.48,15.173c-8.04,8.032 -12.795,18.247 -13.53,27.96c8.88,-6.788 18.345,-11.828 31.163,-6.863c1.297,-3.525 2.745,-7.072 4.35,-10.627Zm88.65,48.517c-4.103,2.798 -8.175,5.333 -12.21,7.583c-1.403,6.682 -4.965,13.807 -10.133,19.897c-0.015,-4.327 -1.215,-8.677 -3.322,-13.042c-3.713,1.68 -7.245,3.142 -10.605,4.41c4.95,12.817 -0.09,22.282 -6.863,31.162c9.72,-0.742 19.92,-5.497 27.953,-13.545c8.67,-8.662 14.76,-21.165 15.18,-36.465Zm-41.033,-11.535l-21.622,-21.622c9.157,-21.443 35.182,-67.088 91.492,-69.9c-1.882,43.312 -30.307,74.49 -69.87,91.522Zm84.578,-106.335c-3.098,-0.21 -6.128,-0.315 -9.105,-0.315c-64.5,0 -101.228,49.178 -114.585,88.748l35.452,35.452c40.71,-14.587 88.628,-49.95 88.628,-113.76c0,-3.3 -0.128,-6.675 -0.39,-10.125Z" style="fill:#58b2dc;"/></svg>