<?xml version="1.0" encoding="UTF-8" standalone="no"?><!DOCTYPE svg PUBLIC "-//W3C//DTD SVG 1.1//EN" "http://www.w3.org/Graphics/SVG/1.1/DTD/svg11.dtd"><svg width="100%" height="100%" viewBox="0 0 320 240" version="1.1" xmlns="http://www.w3.org/2000/svg" xmlns:xlink="http://www.w3.org/1999/xlink" xml:space="preserve" style="fill-rule:evenodd;clip-rule:evenodd;stroke-linejoin:round;stroke-miterlimit:1.41421;"><path d="M154.11,190.485c-17.195,-3.975 -33.2,-7.455 -25.45,-22.095c23.6,-44.56 6.255,-68.39 -18.66,-68.39c-25.41,0 -42.32,24.745 -18.66,68.39c7.985,14.725 -8.625,18.2 -25.45,22.095c-15.365,3.545 -15.94,11.17 -15.89,24.515c0.01,1.585 0.025,3.245 0.025,5l119.95,0c0,-1.695 0.015,-3.305 0.02,-4.845c0.06,-13.435 -0.465,-21.11 -15.885,-24.67Z" style="fill:#58b2dc;"/><path d="M244.82,62.284c-3.653,-2.315 -8.095,-5.087 -8.863,-10.057c-0.399,-2.584 0.223,-5.337 1.705,-7.903c0.879,-1.522 2.062,-2.98 3.52,-4.289l3.596,3.822c-2.061,1.861 -4.109,4.874 -3.657,7.767c0.457,2.958 3.951,4.749 7.357,7.057c7.379,5.011 7.967,11.451 5.353,15.98c-0.961,1.663 -2.354,3.067 -3.997,4.048l-5.662,-3.269c5.337,-0.787 9.459,-7.558 0.648,-13.156Zm-16.104,47.534l7.217,4.166l4.167,-7.216l-7.217,-4.167l-4.167,7.217Zm-10.825,-6.25l7.217,4.166l4.167,-7.216l-7.217,-4.167l-4.167,7.217Zm-10.825,-6.25l7.217,4.166l4.166,-7.216l-7.217,-4.167l-4.166,7.217Zm-18.042,-10.417l14.433,8.333l4.167,-7.216l-14.434,-8.334l-4.166,7.217Zm50.518,29.167l14.433,8.333l4.167,-7.217l-14.434,-8.333l-4.166,7.217Zm-42.335,-10.008l36.085,20.833l4.166,-7.217l-36.084,-20.833l-4.167,7.217Zm55.802,3.349l7.216,4.167l4.167,-7.217l-7.217,-4.167l-4.166,7.217Zm-10.826,-6.25l7.217,4.167l4.167,-7.217l-7.217,-4.167l-4.167,7.217Zm-10.825,-6.25l7.217,4.167l4.166,-7.217l-7.216,-4.167l-4.167,7.217Zm-10.825,-6.25l7.217,4.167l4.166,-7.217l-7.217,-4.167l-4.166,7.217Zm-10.826,-6.25l7.217,4.167l4.167,-7.217l-7.217,-4.167l-4.167,7.217Zm-14.433,-8.333l10.825,6.25l4.167,-7.217l-10.826,-6.25l-4.166,7.217Zm-29.576,26.226l86.603,50l29.166,-50.518l-86.602,-50l-29.167,50.518Zm11.384,-3.05l72.169,41.666l20.833,-36.084l-72.169,-41.667l-20.833,36.085Z" style="fill:#58b2dc;"/></svg>