<?xml version="1.0" encoding="UTF-8" standalone="no"?><!DOCTYPE svg PUBLIC "-//W3C//DTD SVG 1.1//EN" "http://www.w3.org/Graphics/SVG/1.1/DTD/svg11.dtd"><svg width="100%" height="100%" viewBox="0 0 320 240" version="1.1" xmlns="http://www.w3.org/2000/svg" xmlns:xlink="http://www.w3.org/1999/xlink" xml:space="preserve" style="fill-rule:evenodd;clip-rule:evenodd;stroke-linejoin:round;stroke-miterlimit:1.41421;"><path d="M184.333,191.667c-0.058,-9.05 -5.05,-16.925 -12.467,-21.025l-11.683,-54.75l-11.692,54.75c-7.4,4.1 -12.4,11.975 -12.458,21.025l-48.508,0c-7.042,-12.508 -10.859,-27.017 -10.859,-41.667c0,-45.95 37.384,-83.333 83.334,-83.333c45.95,0 83.333,37.383 83.333,83.333c0,14.65 -3.817,29.159 -10.858,41.667l-48.142,0Zm75.667,-41.667c0,-55.225 -44.775,-100 -100,-100c-55.225,0 -100,44.775 -100,100c0,21.525 6.8,42.017 18.375,58.334l163.25,0c11.575,-16.317 18.375,-36.809 18.375,-58.334Zm-94.417,-68.1c-1.825,-0.141 -3.642,-0.216 -5.4,-0.216c-1.775,0 -3.6,0.075 -5.425,0.216l0,23.2c1.8,-0.208 3.617,-0.316 5.425,-0.316c1.783,0 3.608,0.108 5.4,0.316l0,-23.2Zm48.258,25.5c-2.341,-2.858 -4.916,-5.533 -7.65,-7.975l-15.758,16.4c2.833,2.359 5.408,5.025 7.658,7.975l15.75,-16.4Zm-21.675,-17.758c-3.216,-1.7 -6.583,-3.158 -10,-4.317l-8.525,21.442c3.484,1.042 6.834,2.492 10,4.317l8.525,-21.442Zm-78.616,51.667c1.008,-3.625 2.391,-7.125 4.15,-10.425l-20.584,-8.875c-1.633,3.35 -3.033,6.85 -4.15,10.416l20.584,8.884Zm22.991,-30.125c3.159,-1.842 6.509,-3.309 9.984,-4.367l-8.609,-21.4c-3.433,1.183 -6.775,2.642 -10,4.367l8.625,21.4Zm-14.283,12.616c2.258,-2.95 4.825,-5.616 7.65,-7.975l-15.75,-16.4c-2.733,2.442 -5.308,5.117 -7.658,7.975l15.758,16.4Zm104.767,7.534c-1.175,-3.567 -2.617,-7.042 -4.3,-10.35l-20.45,9.216c1.808,3.275 3.25,6.75 4.308,10.35l20.442,-9.216Z" style="fill:#58b2dc;"/></svg>