<?xml version="1.0" encoding="UTF-8" standalone="no"?><!DOCTYPE svg PUBLIC "-//W3C//DTD SVG 1.1//EN" "http://www.w3.org/Graphics/SVG/1.1/DTD/svg11.dtd"><svg width="100%" height="100%" viewBox="0 0 320 240" version="1.1" xmlns="http://www.w3.org/2000/svg" xmlns:xlink="http://www.w3.org/1999/xlink" xml:space="preserve" style="fill-rule:evenodd;clip-rule:evenodd;stroke-linejoin:round;stroke-miterlimit:1.41421;"><path d="M234.265,86.234c-7.434,12.875 -24.063,14.893 -29.929,25.055l-7.177,-4.144c3.857,-6.707 10.201,-10.42 16.349,-13.977c5.507,-3.196 10.717,-6.211 13.54,-11.101c5.4,-9.353 0.37,-17.934 -6.587,-21.95c-6.946,-4.011 -16.881,-4.07 -22.281,5.283c-2.823,4.89 -2.829,10.91 -2.844,17.276c-0.006,7.103 -0.046,14.456 -3.933,21.146l-7.173,-4.142c5.866,-10.161 -0.7,-25.571 6.733,-38.446c7.756,-13.434 22.843,-14.582 33.665,-8.334c10.829,6.252 17.389,19.907 9.637,33.334Zm-42.28,41.98l-16.238,-9.375l2.656,5.291c0.27,0.825 0.919,1.584 1.767,2.074l3.226,1.862c0.848,0.49 1.83,0.672 2.679,0.493l5.91,-0.345Zm3.265,-7.738l-14.434,-8.333c-0.996,-0.575 -2.271,-0.233 -2.846,0.763c-0.575,0.996 -0.234,2.271 0.762,2.846l14.434,8.333c0.996,0.575 2.271,0.233 2.846,-0.763c0.575,-0.996 0.233,-2.271 -0.762,-2.846Zm4.166,-7.216l-14.434,-8.334c-0.996,-0.575 -2.27,-0.233 -2.845,0.763c-0.575,0.996 -0.234,2.271 0.762,2.846l14.434,8.333c0.996,0.575 2.271,0.233 2.846,-0.763c0.575,-0.995 0.233,-2.27 -0.763,-2.845Zm-15.147,-52.615l-9.158,-5.287l2.858,-4.951l9.147,5.281c-0.535,0.778 -1.072,1.566 -1.565,2.421c-0.486,0.841 -0.89,1.69 -1.282,2.536Zm17.073,-16.263l-2.082,-9.752l5.589,-1.189l2.034,9.56c-1.998,0.194 -4.02,0.83 -5.541,1.381Zm40.731,18.936l9.296,-3.019l1.765,5.436l-9.487,3.072c-0.283,-1.592 -0.739,-3.66 -1.574,-5.489Zm-16.706,-17.074l4.077,-7.061l4.948,2.856l-4.092,7.087c-0.825,-0.587 -1.677,-1.137 -2.547,-1.639c-0.776,-0.448 -1.572,-0.86 -2.386,-1.243Zm24.771,45.83l-2.858,4.95l-9.159,-5.287c0.537,-0.763 1.071,-1.537 1.556,-2.378c0.494,-0.855 0.908,-1.714 1.313,-2.567l9.148,5.282Z" style="fill:#58b2dc;"/><path d="M154.11,190.485c-17.195,-3.975 -33.2,-7.455 -25.45,-22.095c23.6,-44.56 6.255,-68.39 -18.66,-68.39c-25.41,0 -42.32,24.745 -18.66,68.39c7.985,14.725 -8.625,18.2 -25.45,22.095c-15.365,3.545 -15.94,11.17 -15.89,24.515c0.01,1.585 0.025,3.245 0.025,5l119.95,0c0,-1.695 0.015,-3.305 0.02,-4.845c0.06,-13.435 -0.465,-21.11 -15.885,-24.67Z" style="fill:#58b2dc;"/></svg>