<?xml version="1.0" standalone="no"?>
<!DOCTYPE svg PUBLIC "-//W3C//DTD SVG 20010904//EN"
 "http://www.w3.org/TR/2001/REC-SVG-20010904/DTD/svg10.dtd">
<svg version="1.0" xmlns="http://www.w3.org/2000/svg"
 width="700.000000pt" height="700.000000pt" viewBox="0 0 700.000000 700.000000"
 preserveAspectRatio="xMidYMid meet">
<metadata>
Created by potrace 1.11, written by Peter Selinger 2001-2013
</metadata>
<g transform="translate(0.000000,700.000000) scale(0.100000,-0.100000)"
fill="#000000" stroke="none">
<path d="M1608 6865 c-2 -1 -32 -5 -68 -8 -137 -12 -255 -45 -377 -105 l-72
-35 21 -30 c83 -117 375 -354 665 -542 336 -217 936 -539 1408 -755 99 -45
218 -100 265 -122 104 -49 598 -264 660 -288 25 -10 97 -39 160 -65 63 -26
137 -56 163 -66 l49 -19 -49 61 c-62 79 -282 338 -347 408 -391 421 -717 725
-1029 959 -402 302 -760 486 -1102 566 -89 21 -121 26 -220 32 -44 3 -90 6
-102 8 -13 2 -24 2 -25 1z"/>
<path d="M5964 6079 c-105 -40 -176 -116 -214 -228 -24 -71 -32 -193 -18 -276
5 -27 11 -66 14 -86 3 -21 16 -70 29 -110 l23 -74 6 50 c33 250 78 369 230
599 62 94 82 132 73 138 -19 13 -92 6 -143 -13z"/>
<path d="M1289 5536 c-2 -2 -38 -6 -79 -9 -72 -5 -189 -26 -275 -49 -22 -5
-48 -12 -59 -14 -10 -2 -21 -5 -23 -8 -6 -5 57 -123 125 -236 313 -518 652
-824 1116 -1005 108 -42 343 -109 425 -121 20 -3 47 -7 61 -10 14 -2 39 -7 55
-10 17 -3 82 -7 145 -8 336 -7 735 135 1114 398 32 23 73 51 90 63 17 12 64
48 104 81 l73 60 -63 36 c-453 251 -946 470 -1358 601 -232 74 -281 89 -375
109 -5 1 -19 5 -30 9 -46 15 -399 82 -485 92 -36 4 -78 10 -95 12 -39 6 -461
14 -466 9z"/>
<path d="M5557 5164 c-63 -15 -266 -91 -281 -105 -6 -5 -16 -9 -23 -9 -23 0
-378 -176 -544 -270 -291 -164 -678 -412 -914 -585 -38 -28 -113 -82 -165
-121 -149 -108 -407 -308 -555 -429 -184 -150 -585 -492 -615 -525 -3 -3 -48
-43 -100 -90 -52 -47 -100 -89 -106 -95 -31 -28 -286 -269 -347 -326 -63 -62
-66 -66 -40 -64 64 6 271 32 317 41 11 2 42 6 70 9 28 3 89 12 136 20 82 13
131 21 195 31 26 4 57 10 175 30 14 3 72 14 130 25 105 21 131 25 173 33 12 2
87 18 166 35 131 28 174 32 145 13 -13 -8 -301 -421 -427 -612 -49 -74 -109
-164 -133 -200 -85 -127 -333 -525 -329 -528 6 -6 112 17 210 45 175 50 446
167 573 247 23 14 44 26 46 26 11 0 251 164 347 237 392 299 751 727 899 1072
36 83 39 86 86 104 27 11 63 25 79 32 17 7 71 29 120 50 93 39 387 181 440
212 17 10 53 31 80 47 239 139 469 334 603 511 78 102 139 242 157 356 23 151
24 201 10 332 -19 174 -115 345 -236 419 -75 46 -225 61 -342 32z m164 -290
c113 -57 64 -244 -65 -244 -122 0 -181 138 -95 226 43 45 96 51 160 18z
m-1159 -907 c47 -28 62 -43 96 -98 21 -35 65 -149 57 -149 -2 0 1 -15 6 -32 7
-27 12 -186 7 -260 -2 -30 -15 -20 -22 17 -10 52 -59 168 -96 225 -99 154
-253 181 -453 79 -136 -69 -256 -166 -467 -378 -91 -91 -156 -154 -144 -141
11 14 42 57 69 95 46 65 84 114 188 240 60 71 224 233 288 282 74 57 173 112
239 134 79 25 175 20 232 -14z"/>
<path d="M2365 1172 c0 -75 -3 -155 -7 -177 -61 -374 -262 -608 -602 -698 -85
-22 -88 -24 -60 -34 70 -27 113 -36 188 -38 91 -3 160 17 232 66 174 119 296
436 294 769 0 130 -19 250 -38 250 -4 0 -7 -62 -7 -138z"/>
</g>
</svg>
