<?xml version="1.0" encoding="UTF-8"?><svg xmlns="http://www.w3.org/2000/svg" xmlns:xlink="http://www.w3.org/1999/xlink" xmlns:serif="http://www.serif.com/" width="100%" height="100%" viewBox="0 0 460 460" version="1.2" xml:space="preserve" baseProfile="tiny-ps" fill-rule="evenodd" stroke-linejoin="round" stroke-miterlimit="2"><title>Mugen Hiko G.K.</title><g transform="matrix(1,0,0,1,-405,-649)"><g transform="matrix(0.438931,0,0,1.04072,404.61,650)"><g><g transform="matrix(2.79757,1.18436e-32,0,1.73019,-1177.72,-1318.51)"><rect x="420.98" y="762.065" width="374.611" height="255.464" fill="white"></rect></g><g transform="matrix(1.07112,-0.2402,1.06958,0.848397,-156.837,142.189)"><g transform="matrix(1.87802,0,0,1,81.8604,-7.8706)"><path d="M317.105,194.069C358.684,199.629 339.915,246.348 316.894,259.017C247.903,296.984 75.614,226.407 75.614,226.407C75.614,226.407 221.507,181.284 317.105,194.069ZM236.619,259.688C243.767,232.391 235.021,215.016 173.121,238.335C245.172,200.177 258.231,229.737 236.619,259.688ZM316.849,209.728C320.92,209.728 324.224,213.032 324.224,217.103C324.224,221.173 320.92,224.478 316.849,224.478C312.779,224.478 309.474,221.173 309.474,217.103C309.474,213.032 312.779,209.728 316.849,209.728Z" fill="rgb(88,178,220)"></path></g><g transform="matrix(1.87802,0,0,1,0,0)"><path d="M285.97,175.434C285.97,175.434 220.6,66.339 146.114,52.248C145.366,109.684 163.88,139.981 196.648,164.619C230.064,189.743 285.97,175.434 285.97,175.434Z" fill="rgb(88,178,220)"></path></g><g transform="matrix(1.87802,0,0,1,0,0)"><path d="M305.738,176.056C305.738,176.056 275.969,-6.254 190.117,-2.41C199.845,53.4 305.738,176.056 305.738,176.056Z" fill="rgb(88,178,220)"></path></g><g transform="matrix(1.2075,0,0,0.642965,97.7751,99.7152)"><path d="M0.518,347.962C43.757,402.204 99.065,313.369 95.199,297.117C84.321,324.94 54.071,366.19 0.518,347.962Z" fill="rgb(88,178,220)"></path></g><g transform="matrix(1.52496,0,0,0.812002,80.0193,48.5818)"><path d="M97.437,295.087C97.437,295.087 137.388,312.183 205.896,295.087C232.116,288.544 308.209,260.547 288.922,219.564C274.725,189.397 97.437,295.087 97.437,295.087Z" fill="rgb(88,178,220)"></path></g><g transform="matrix(1.87802,0,0,1,0,0)"><path d="M416.914,157.458C419.203,155.211 388.537,139.92 381.412,186.848C392.214,170.268 399.163,166.75 416.914,157.458Z" fill="rgb(88,178,220)"></path></g></g></g></g></g></svg>